<?xml version="1.0" standalone="no"?>
<!DOCTYPE svg PUBLIC "-//W3C//DTD SVG 20010904//EN"
 "http://www.w3.org/TR/2001/REC-SVG-20010904/DTD/svg10.dtd">
<svg version="1.0" xmlns="http://www.w3.org/2000/svg"
 width="2362.000000pt" height="2362.000000pt" viewBox="0 0 2362.000000 2362.000000"
 preserveAspectRatio="xMidYMid meet">
<metadata>
Created by potrace 1.11, written by Peter Selinger 2001-2013
</metadata>
<g transform="translate(0.000000,2362.000000) scale(0.100000,-0.100000)"
fill="#000000" stroke="none">
<path d="M9682 23440 c-74 -17 -122 -42 -126 -63 -15 -75 -15 -125 0 -172 9
-27 20 -55 25 -61 5 -6 18 -42 30 -80 17 -56 22 -98 24 -224 1 -85 5 -165 10
-178 7 -21 6 -22 -19 -12 -34 13 -122 13 -145 0 -10 -5 -26 -31 -36 -57 -10
-26 -29 -59 -42 -73 -30 -32 -38 -74 -37 -190 0 -80 4 -104 26 -151 38 -83
124 -205 194 -276 34 -34 80 -90 103 -123 l40 -61 6 -210 5 -209 -27 -59 -27
-59 -33 29 c-39 34 -91 39 -150 14 -19 -8 -44 -15 -54 -15 -11 0 -19 -4 -19
-9 0 -5 -21 -12 -46 -16 -26 -3 -57 -11 -70 -17 -60 -28 -179 -231 -209 -358
-18 -77 -20 -287 -4 -339 25 -77 68 -170 103 -219 20 -28 36 -54 36 -57 0 -6
90 -134 132 -187 l29 -38 -35 15 c-48 20 -178 20 -217 -1 -36 -18 -79 -101
-79 -152 0 -35 29 -100 54 -121 9 -8 16 -22 16 -31 0 -10 34 -49 76 -87 42
-37 85 -86 96 -108 12 -22 41 -69 65 -105 l45 -65 -139 -13 c-76 -7 -199 -24
-273 -37 -74 -13 -162 -27 -195 -31 -33 -3 -105 -15 -160 -26 -55 -11 -120
-24 -145 -28 -121 -23 -324 -109 -441 -187 -61 -41 -189 -161 -189 -178 0 -4
-24 -35 -54 -69 -29 -34 -61 -75 -70 -93 -9 -18 -25 -37 -35 -43 -45 -23 -474
-2 -551 28 -32 12 -74 17 -142 17 l-96 0 -108 -55 c-100 -52 -112 -61 -200
-160 -79 -88 -105 -126 -163 -240 -38 -75 -82 -174 -97 -220 -28 -83 -29 -90
-29 -298 0 -116 -3 -212 -8 -212 -4 0 -15 17 -25 38 -9 20 -45 79 -79 129 -98
145 -149 260 -168 378 -9 55 -27 128 -40 163 -16 40 -25 82 -25 120 0 109 -55
253 -126 330 -44 47 -147 82 -244 82 -65 0 -84 -5 -140 -32 -60 -29 -72 -32
-155 -30 -49 1 -101 6 -115 11 -14 5 -37 12 -52 15 -26 6 -78 46 -78 61 0 4
-20 46 -44 93 -43 88 -76 212 -76 291 0 22 11 63 25 93 14 29 27 69 30 88 11
68 38 176 63 255 60 191 69 310 30 411 -29 75 -129 178 -213 220 -80 39 -201
47 -261 16 -43 -22 -87 -62 -111 -101 -8 -15 -29 -35 -46 -46 -17 -11 -37 -30
-43 -43 -6 -13 -30 -33 -52 -45 -40 -21 -212 -199 -212 -219 0 -5 -20 -35 -43
-66 -24 -31 -55 -75 -69 -97 -38 -61 -162 -304 -182 -357 -12 -32 -23 -48 -35
-48 -18 0 -20 -2 -89 -146 -23 -49 -48 -93 -55 -99 -7 -5 -57 -82 -112 -170
-116 -188 -211 -309 -234 -300 -9 4 -53 9 -98 12 -96 7 -87 -8 -103 173 -9 98
-14 119 -36 147 -67 88 -224 139 -303 99 -34 -18 -81 -78 -81 -103 0 -10 -13
-34 -29 -53 -15 -19 -41 -73 -57 -120 -28 -83 -29 -90 -28 -280 1 -170 5 -210
27 -310 29 -131 52 -252 62 -325 3 -27 22 -108 40 -180 48 -186 75 -363 75
-495 0 -99 -2 -111 -15 -100 -8 7 -15 19 -15 26 0 15 -65 84 -103 108 -47 31
-188 66 -269 66 -117 0 -223 -36 -278 -96 -88 -95 -113 -203 -92 -399 7 -73
16 -105 46 -165 21 -41 52 -93 70 -115 17 -22 40 -53 50 -70 20 -32 145 -155
158 -155 4 0 25 -18 47 -40 22 -22 46 -40 54 -40 17 0 92 -80 165 -176 29 -38
66 -78 83 -89 16 -11 29 -25 29 -31 0 -5 14 -23 31 -40 17 -16 43 -47 58 -68
14 -21 39 -57 54 -80 15 -23 46 -71 68 -108 22 -37 67 -99 99 -137 33 -38 60
-71 60 -74 0 -10 94 -145 130 -187 32 -37 137 -186 175 -249 6 -9 13 -18 16
-21 11 -9 89 -140 89 -149 0 -5 3 -11 8 -13 8 -4 72 -96 72 -104 0 -21 338
-407 420 -480 78 -70 130 -124 153 -161 26 -42 115 -116 176 -147 18 -10 63
-38 99 -63 36 -24 90 -57 121 -72 76 -39 271 -106 378 -131 188 -44 990 -151
1248 -167 59 -4 90 -1 117 10 34 14 47 14 155 -4 239 -39 233 -37 233 -102 -1
-38 -39 -86 -77 -96 -16 -4 -34 -23 -50 -51 -14 -25 -36 -58 -49 -73 -13 -16
-24 -32 -24 -37 0 -11 -59 -101 -76 -115 -6 -5 -28 -39 -49 -75 -21 -36 -49
-82 -62 -103 -13 -21 -36 -59 -50 -85 -14 -26 -36 -60 -49 -75 -13 -15 -30
-50 -38 -76 -8 -27 -19 -57 -25 -67 -13 -23 -45 -113 -75 -214 -28 -91 -53
-235 -61 -350 -3 -47 -11 -132 -17 -189 l-11 -103 -41 6 c-179 29 -440 34
-554 10 -356 -73 -732 -288 -832 -476 -46 -86 -90 -153 -144 -218 -59 -70
-105 -167 -149 -310 -20 -63 -52 -169 -73 -235 -31 -102 -37 -138 -41 -241 -6
-136 0 -163 69 -313 21 -46 54 -131 74 -190 20 -58 42 -116 50 -128 8 -12 14
-24 14 -25 0 -2 -87 -3 -193 -3 -252 0 -717 -51 -918 -101 -103 -25 -339 -108
-411 -144 -102 -52 -247 -149 -311 -209 -76 -72 -92 -98 -131 -218 -15 -45
-32 -83 -39 -86 -11 -4 -46 -71 -171 -327 -22 -47 -43 -87 -46 -90 -22 -22
-33 -92 -37 -235 -5 -143 -3 -169 17 -240 27 -101 83 -244 123 -315 16 -30 44
-80 60 -110 52 -95 73 -123 133 -183 l58 -58 -2 -87 c-2 -128 -13 -276 -22
-287 -4 -5 -10 -21 -13 -35 -8 -31 -82 -143 -157 -235 -229 -283 -269 -359
-270 -512 l0 -92 -47 20 c-127 55 -275 89 -383 89 -56 0 -73 -4 -116 -31 -27
-17 -55 -38 -62 -47 -20 -26 -107 -22 -166 7 -95 47 -181 35 -230 -32 -17 -23
-21 -45 -23 -112 -1 -45 -7 -102 -13 -126 -14 -50 -10 -85 18 -155 41 -107
123 -175 260 -218 46 -14 91 -26 101 -26 9 0 37 -13 62 -28 58 -37 109 -62
125 -62 8 0 19 -9 26 -20 7 -11 17 -20 23 -20 12 0 50 -56 60 -87 3 -13 37
-69 74 -125 76 -115 98 -156 147 -272 41 -98 43 -129 9 -153 -57 -40 -158
-140 -181 -179 -43 -73 -27 -204 34 -267 35 -37 103 -75 227 -127 124 -53 296
-138 310 -155 5 -6 39 -22 75 -35 36 -12 92 -35 125 -51 103 -48 365 -254 430
-337 33 -43 35 -48 19 -57 -10 -5 -31 -23 -47 -38 l-29 -28 4 -117 c3 -98 8
-126 29 -172 53 -114 101 -149 299 -216 187 -63 305 -69 417 -22 47 20 228 39
426 44 154 5 194 3 220 -9 135 -63 147 -66 308 -68 188 -3 253 11 462 102 210
91 323 150 407 213 107 79 132 90 167 72 55 -28 160 -54 243 -60 89 -7 114 -4
300 37 63 14 164 30 224 37 94 10 110 9 125 -4 10 -9 31 -21 48 -26 31 -11 39
-33 57 -148 7 -44 124 -286 174 -359 48 -71 196 -215 249 -241 116 -59 453
-137 684 -157 85 -8 171 -20 190 -28 19 -8 66 -25 104 -37 39 -12 86 -31 105
-42 19 -11 58 -29 85 -39 28 -10 88 -32 135 -49 157 -58 198 -65 309 -53 62 7
113 19 137 31 22 12 79 40 127 63 l88 42 102 -9 c135 -11 388 -8 457 6 209 42
280 71 370 153 67 60 95 104 111 171 6 28 17 60 24 72 7 11 19 40 25 63 6 24
14 41 16 38 3 -3 -2 -33 -12 -68 -29 -112 -24 -188 22 -319 51 -148 105 -229
240 -360 117 -114 140 -127 334 -185 71 -22 137 -48 153 -62 16 -12 41 -26 55
-29 15 -3 56 -18 92 -34 36 -16 90 -37 120 -46 164 -51 335 -142 390 -209 24
-28 106 -64 195 -85 173 -40 321 -18 432 64 67 50 78 62 121 134 31 51 41 97
23 104 -4 1 -12 13 -15 26 -7 21 -5 22 53 22 34 0 69 -4 79 -10 9 -5 59 -21
111 -35 101 -28 175 -62 231 -105 19 -15 64 -42 100 -60 36 -19 74 -41 85 -50
29 -24 102 -64 165 -91 30 -12 69 -33 86 -46 17 -13 34 -23 37 -23 4 0 42 -16
84 -36 173 -81 201 -92 263 -102 143 -24 228 -26 273 -6 61 27 103 61 117 94
9 21 19 30 36 30 12 0 25 -4 28 -9 3 -4 20 -11 38 -15 31 -6 98 -35 193 -84
28 -14 77 -39 110 -55 33 -16 62 -32 65 -36 6 -8 194 -101 204 -101 4 0 26 -8
49 -19 124 -55 186 -74 255 -79 118 -8 232 33 282 100 42 56 50 78 50 143 0
73 -13 94 -94 154 -41 31 -55 49 -69 92 -23 66 -34 114 -48 199 -5 36 -15 94
-21 130 -7 36 -11 114 -10 173 2 63 -4 142 -13 190 -8 45 -17 127 -20 183 l-5
101 56 -28 c101 -51 187 -37 260 43 38 41 41 49 47 116 5 65 3 78 -24 138 -33
73 -109 202 -143 242 -55 66 -122 138 -138 150 -10 8 -30 24 -45 38 -14 13
-35 26 -47 30 -11 4 -39 22 -62 40 -23 19 -44 34 -48 34 -4 0 -26 13 -49 28
-23 15 -55 34 -70 42 -16 8 -39 24 -51 35 -55 51 -155 120 -196 137 -41 16
-119 55 -231 117 l-44 24 44 13 c85 25 141 110 141 214 0 100 -98 239 -235
331 -27 19 -66 46 -85 60 -47 36 -333 202 -445 259 -157 79 -341 160 -365 160
-13 0 -38 5 -56 12 -28 10 -33 17 -39 55 -3 23 -13 46 -21 51 -12 7 -13 18 -7
57 4 26 15 51 23 56 102 53 164 79 187 79 16 0 33 4 39 8 5 5 31 17 57 26 30
11 66 36 93 64 52 55 132 211 138 269 2 22 11 65 20 95 14 48 15 83 6 269 -12
259 -15 268 -118 449 -14 25 -44 70 -67 100 -23 30 -62 87 -87 125 -26 39 -70
90 -98 114 -28 24 -75 75 -105 115 -30 39 -86 98 -125 130 -39 33 -81 71 -93
86 -84 99 -396 355 -517 423 -99 57 -101 58 -160 97 l-45 31 40 -7 c22 -4 58
-15 80 -26 22 -11 83 -35 135 -54 184 -68 225 -86 270 -114 25 -15 89 -49 144
-76 62 -31 121 -70 160 -105 33 -30 77 -66 96 -79 32 -22 168 -135 180 -149 3
-4 30 -26 60 -51 30 -24 97 -82 148 -128 100 -89 200 -159 242 -168 50 -11 58
-15 81 -37 22 -21 56 -44 219 -149 108 -70 104 -61 111 -286 5 -193 6 -199 38
-277 18 -44 57 -123 88 -175 51 -85 71 -118 150 -235 28 -42 166 -161 218
-187 83 -43 145 -58 244 -58 69 -1 102 -5 115 -15 23 -17 121 -20 131 -4 4 6
9 37 12 69 5 47 1 66 -18 104 -12 25 -31 54 -41 63 -21 19 -24 56 -5 71 14 11
47 1 64 -19 30 -38 162 -281 178 -329 8 -25 33 -68 56 -95 22 -27 47 -61 54
-76 20 -37 188 -186 233 -205 20 -9 81 -31 134 -50 84 -29 110 -34 190 -34
122 0 247 38 347 104 74 50 94 70 126 129 11 20 27 37 36 37 21 0 29 20 29 77
0 39 -5 49 -37 79 -21 20 -67 56 -101 80 -63 45 -64 46 -45 66 35 39 72 51
138 44 59 -6 156 -44 170 -66 3 -6 28 -21 53 -34 58 -29 176 -145 227 -221 58
-88 130 -133 290 -180 147 -44 428 -25 614 41 155 55 201 117 201 272 0 85 -2
94 -31 136 -22 34 -40 49 -70 57 -45 14 -49 36 -9 55 79 38 158 74 165 74 21
0 188 73 251 109 39 23 97 50 128 61 31 10 74 28 94 38 64 32 105 50 157 68
28 9 74 25 103 35 29 10 117 49 195 87 78 38 174 84 212 102 135 61 310 155
350 188 64 51 191 203 274 327 181 272 220 483 114 623 -14 18 -23 34 -22 35
2 2 25 10 51 19 109 38 272 205 374 381 l57 99 10 128 c9 108 8 135 -6 176 -8
27 -20 68 -26 91 -7 24 -28 62 -49 86 -20 24 -48 57 -62 75 -16 20 -43 38 -74
48 -43 15 -61 15 -155 4 -147 -17 -171 -29 -273 -134 -49 -50 -88 -93 -88 -97
0 -13 -170 -59 -275 -73 -98 -14 -121 -14 -210 0 -55 8 -122 25 -150 38 -27
13 -79 31 -115 40 -35 9 -71 23 -80 31 -9 8 -22 15 -28 15 -10 0 -37 11 -167
71 -135 62 -580 96 -714 56 -85 -26 -90 -21 -34 32 63 60 77 107 44 142 -12
13 -21 27 -21 32 0 14 -57 63 -94 81 -17 8 -51 36 -76 62 -56 58 -90 73 -184
81 -66 5 -82 3 -141 -21 -37 -15 -105 -36 -152 -47 -104 -24 -188 -67 -309
-157 -93 -70 -171 -105 -304 -136 -156 -36 -188 -38 -370 -26 -96 7 -193 10
-215 6 -51 -10 -185 -10 -207 -1 -9 4 -27 27 -38 51 -12 24 -25 44 -30 44 -4
0 -32 17 -61 37 -30 20 -83 45 -119 55 -86 25 -240 34 -311 19 -49 -10 -60
-17 -91 -59 -19 -26 -41 -58 -48 -72 -7 -14 -31 -45 -52 -70 -44 -52 -135
-198 -178 -286 -35 -73 -126 -176 -263 -301 -83 -75 -123 -104 -216 -150 -181
-92 -263 -181 -282 -308 -17 -116 -45 -235 -57 -247 -9 -9 -12 -9 -12 0 0 6
-29 30 -64 52 -46 29 -65 48 -69 68 -3 15 -16 38 -29 53 -13 14 -28 34 -34 45
-6 10 -20 23 -32 29 -12 5 -25 19 -28 30 -4 11 -10 22 -14 25 -4 3 -22 30 -39
62 -52 92 -323 353 -476 458 -20 14 -62 45 -93 71 -31 25 -82 60 -112 78 -30
17 -76 45 -101 61 -116 71 -248 131 -334 151 -132 32 -141 38 -60 39 120 1
324 37 465 82 66 21 184 77 295 140 33 19 89 45 125 58 198 72 415 217 594
396 12 11 37 40 56 65 19 24 58 67 87 94 40 38 58 64 73 110 11 32 43 104 70
160 78 157 105 253 131 470 l12 101 121 -13 c66 -6 184 -13 261 -15 78 -2 143
-7 147 -13 4 -5 8 -26 8 -45 0 -98 66 -254 138 -328 52 -53 151 -106 229 -122
223 -46 289 -49 340 -14 15 10 37 21 48 24 11 3 26 20 34 38 8 17 17 32 20 32
3 0 18 -20 33 -43 38 -60 209 -224 288 -275 72 -47 195 -98 272 -112 79 -15
219 -12 383 10 187 24 236 40 277 91 17 21 37 39 44 39 7 0 25 5 39 12 20 9
25 18 25 49 0 21 9 75 20 121 11 46 22 112 25 148 10 112 27 183 57 237 16 28
32 53 36 55 12 5 90 171 106 227 21 70 21 197 0 258 -9 26 -37 83 -62 126 -26
43 -59 98 -74 124 -14 26 -51 75 -82 109 -67 75 -74 102 -31 122 17 7 37 17
45 21 23 12 48 63 49 97 1 17 8 37 16 44 32 26 9 165 -35 212 -12 12 -26 33
-31 45 -13 35 -122 109 -195 132 -36 12 -83 33 -105 46 -21 14 -43 25 -48 25
-5 0 -11 3 -13 8 -3 7 -26 21 -118 69 -30 15 -92 63 -137 106 -86 81 -114 97
-165 97 -30 0 -30 0 -23 43 4 23 16 68 26 101 11 32 19 73 19 91 0 28 8 37 68
78 90 61 147 118 177 175 13 26 33 57 43 68 17 20 102 69 106 62 21 -36 62
-89 83 -109 91 -84 422 -122 723 -83 215 28 210 28 210 9 0 -9 -7 -42 -16 -73
-13 -44 -15 -79 -11 -157 11 -178 46 -271 137 -370 26 -28 40 -55 48 -90 5
-27 15 -63 20 -80 6 -16 18 -57 27 -90 35 -134 132 -281 242 -367 116 -90 282
-159 428 -178 39 -5 119 -16 178 -25 84 -13 165 -16 350 -13 l242 3 110 38
c196 68 408 184 500 273 69 67 208 220 247 271 127 163 163 202 272 293 30 25
57 52 60 60 7 19 148 162 205 208 83 67 366 202 581 276 58 20 117 44 131 54
15 9 44 29 66 44 48 32 73 80 73 140 -1 63 -53 118 -111 118 -21 0 -20 4 18
43 47 48 84 117 108 200 9 31 20 57 25 57 4 0 10 17 13 38 8 58 44 188 61 223
9 18 16 51 16 73 0 80 71 245 162 376 68 96 194 229 305 320 139 114 173 164
176 259 2 54 -1 63 -28 91 -16 18 -42 38 -57 46 -37 19 -149 18 -230 -3 -37
-9 -70 -14 -73 -11 -4 3 3 24 14 47 12 22 21 47 21 54 0 13 35 64 140 208 45
61 90 151 90 179 0 11 5 22 10 25 18 11 11 196 -11 306 -12 57 -25 111 -30
120 -4 9 -17 50 -28 91 -17 61 -19 88 -12 154 4 44 13 89 18 99 6 11 18 54 28
95 9 41 25 111 35 155 25 110 43 290 34 356 -3 29 -23 89 -43 131 l-36 77 -51
6 c-28 4 -100 5 -160 3 -95 -3 -116 -7 -167 -31 -49 -24 -68 -43 -126 -120
-37 -51 -92 -128 -121 -172 -29 -44 -80 -105 -112 -137 -32 -31 -67 -76 -77
-100 -28 -61 -84 -94 -351 -203 -63 -26 -131 -54 -150 -62 -56 -24 -190 -29
-242 -9 -65 26 -107 58 -125 94 -20 42 -64 65 -112 59 -67 -10 -166 -34 -204
-50 l-38 -16 18 27 c71 105 68 184 -8 223 -121 61 -173 63 -276 8 -160 -84
-179 -95 -223 -126 -71 -49 -183 -166 -272 -285 -22 -29 -44 -54 -49 -56 -5
-2 -9 13 -9 33 0 42 -21 88 -59 128 -76 82 -171 78 -359 -17 -76 -38 -177
-142 -211 -217 -24 -55 -48 -109 -60 -140 -7 -17 -10 8 -10 92 -1 115 -1 117
39 203 22 47 40 91 40 96 0 5 11 34 25 64 14 30 25 61 25 68 0 7 16 45 36 83
33 67 68 167 93 265 6 25 21 79 33 120 18 65 21 102 22 280 0 182 -2 215 -22
293 -46 177 -167 337 -312 411 -98 49 -140 76 -140 86 0 11 -42 75 -75 115
-14 16 -25 34 -25 40 0 5 -9 16 -19 22 -19 12 -18 16 23 95 54 105 59 127 60
268 1 136 -10 172 -88 305 -153 260 -139 228 -132 303 10 102 34 187 84 302
l46 105 4 168 c6 245 -9 277 -198 434 -52 43 -114 91 -136 106 -54 36 -290
117 -346 118 -24 0 -61 3 -83 8 -39 7 -39 7 35 19 41 6 124 16 184 22 120 11
295 54 428 106 48 19 94 34 101 34 8 0 74 27 148 60 108 49 142 69 177 106 36
39 42 52 42 88 0 61 -17 106 -59 149 l-35 37 19 36 c25 46 119 133 206 190 38
25 69 49 69 53 0 4 21 22 48 40 142 96 186 130 279 214 56 51 116 102 132 115
40 30 80 117 87 191 6 52 4 63 -17 93 -13 18 -28 36 -34 40 -21 15 -184 8
-267 -12 -66 -16 -90 -18 -115 -9 -46 15 -41 35 18 67 28 15 94 55 147 90 63
41 122 70 167 83 122 36 308 99 319 108 6 5 34 21 61 36 72 39 119 89 152 159
25 54 28 71 26 149 -2 111 -29 176 -96 231 -77 63 -139 80 -407 112 -69 8
-163 20 -210 26 -47 5 -139 8 -205 6 -101 -4 -131 -9 -189 -33 -104 -42 -247
-85 -282 -85 -16 0 -39 7 -50 15 -19 15 -19 15 0 30 12 9 41 15 68 15 51 0
106 23 146 60 46 44 16 159 -48 183 -17 6 -30 17 -30 24 0 7 -6 13 -13 13 -8
0 -25 9 -38 21 -40 35 -106 70 -161 86 -172 49 -219 55 -433 57 -290 2 -318
-6 -560 -156 -145 -90 -288 -168 -308 -168 -8 0 -20 7 -27 15 -10 12 -4 24 39
71 55 60 61 82 39 153 -12 39 -13 39 -85 51 -40 7 -142 13 -225 14 -153 1
-153 1 -261 -37 -60 -22 -135 -51 -166 -66 -118 -56 -266 -156 -350 -237 l-84
-82 -23 28 c-13 15 -37 33 -54 40 -42 17 -134 8 -196 -20 -85 -39 -377 -350
-437 -465 -8 -16 -25 -41 -37 -55 -58 -66 -210 -374 -210 -424 0 -18 -58 -145
-76 -165 -10 -12 -93 112 -127 190 -13 30 -30 83 -37 119 -43 224 -90 391
-130 470 -24 48 -65 81 -187 154 -98 59 -125 70 -318 133 -108 35 -111 35
-245 31 -121 -4 -145 -8 -225 -37 -95 -34 -183 -79 -251 -127 -136 -96 -189
-139 -273 -221 -52 -51 -101 -93 -110 -93 -9 0 -26 -7 -38 -15 -19 -14 -25
-10 -93 55 -106 101 -232 157 -400 176 -41 4 -70 13 -77 23 -42 53 -138 255
-177 372 -37 114 -46 153 -51 240 -3 57 -11 146 -17 198 -10 84 -16 103 -52
160 -39 63 -81 110 -100 111 -4 0 -16 11 -27 24 -10 12 -49 38 -86 56 -55 26
-84 34 -148 38 -70 4 -82 2 -98 -15 -16 -18 -16 -29 -6 -121 10 -89 10 -105
-5 -136 -9 -19 -16 -39 -16 -45 0 -6 -5 -11 -11 -11 -6 0 -8 7 -5 15 3 9 1 66
-4 128 -7 90 -16 128 -42 192 -58 141 -133 249 -254 371 -97 97 -246 214 -274
214 -5 0 -24 14 -42 30 -22 20 -65 41 -127 60 -129 41 -190 47 -238 25 -60
-27 -73 -51 -66 -113 l6 -52 -48 21 c-31 14 -103 28 -199 40 -166 21 -259 41
-323 69 -49 21 -215 151 -237 186 -24 36 -176 158 -227 182 -48 23 -157 29
-227 12z m51 -184 c32 -13 83 -65 171 -176 47 -59 205 -195 276 -237 40 -23
183 -75 250 -91 25 -6 125 -20 223 -32 194 -25 207 -24 312 25 28 13 62 26 78
29 34 8 34 22 2 51 -24 20 -26 26 -23 101 3 79 3 79 31 82 32 4 117 -35 183
-83 23 -16 70 -50 105 -75 114 -82 291 -262 361 -368 36 -53 70 -108 77 -122
7 -14 25 -47 41 -75 16 -27 43 -78 61 -112 18 -35 36 -63 40 -63 4 0 13 -16
19 -36 7 -19 18 -38 26 -41 8 -3 14 -11 14 -19 0 -8 8 -14 18 -14 12 0 33 25
60 70 39 66 42 75 42 145 0 41 2 75 4 75 25 0 102 -48 146 -91 96 -93 119
-170 135 -458 5 -87 14 -126 51 -240 25 -75 68 -178 95 -230 27 -52 49 -95 49
-96 0 -2 -17 -6 -37 -9 -90 -16 -241 -70 -293 -104 -54 -36 -140 -101 -150
-113 -8 -10 -68 -39 -80 -39 -7 0 -24 -9 -39 -19 -15 -11 -45 -23 -66 -26 -22
-4 -44 -11 -50 -15 -5 -3 -104 -3 -219 2 -205 8 -212 8 -310 -17 -109 -28
-178 -66 -248 -137 l-39 -40 -32 43 c-17 24 -116 133 -218 241 -148 157 -194
213 -224 270 -43 83 -79 135 -182 265 -40 50 -79 102 -86 115 -30 56 -88 138
-97 138 -5 0 -10 6 -10 13 0 7 -13 31 -30 53 -16 21 -30 45 -30 52 0 7 -17 38
-39 70 -21 31 -44 74 -51 95 -6 20 -15 37 -19 37 -13 0 -40 72 -46 125 -4 28
-10 59 -14 70 -20 49 -30 95 -36 163 -5 52 -11 72 -21 72 -12 0 -14 -21 -9
-122 15 -341 30 -427 101 -575 24 -51 44 -97 44 -102 0 -6 14 -34 30 -63 37
-64 55 -102 110 -233 23 -55 55 -129 70 -165 79 -188 115 -239 320 -457 107
-115 208 -228 225 -252 16 -24 38 -49 47 -55 21 -13 24 -28 5 -20 -8 3 -36 -4
-64 -15 -40 -16 -60 -18 -109 -11 -32 4 -99 13 -149 20 -56 8 -105 21 -130 35
-87 49 -240 60 -315 22 -54 -27 -63 -57 -29 -93 12 -13 26 -24 30 -24 5 0 24
-11 44 -24 63 -43 124 -50 317 -37 119 8 177 16 186 25 10 10 32 12 78 8 49
-4 69 -1 89 12 14 9 25 14 25 11 0 -2 -11 -35 -25 -72 -31 -82 -42 -209 -26
-313 22 -145 30 -176 59 -248 30 -72 30 -72 8 -76 -25 -5 -106 -23 -162 -37
-45 -11 -239 12 -258 31 -6 6 -24 10 -40 10 -17 1 -58 7 -91 15 -33 8 -84 15
-112 15 -47 0 -53 -2 -53 -21 0 -20 41 -69 58 -69 4 0 34 -11 66 -24 59 -24
65 -25 383 -25 l322 -1 44 -33 c24 -18 59 -39 78 -47 110 -43 222 -104 359
-194 85 -56 181 -119 212 -139 47 -30 58 -43 64 -72 9 -50 1 -101 -26 -157
l-22 -47 -30 15 c-90 47 -208 57 -500 44 -173 -8 -256 -8 -323 1 -211 27 -438
92 -657 190 -112 49 -142 66 -286 162 -211 140 -369 255 -411 300 -98 103
-121 131 -121 143 0 7 -25 34 -55 61 -30 26 -55 54 -55 62 0 24 66 5 148 -42
128 -73 185 -90 288 -83 49 3 95 5 102 6 22 0 13 30 -10 30 -25 0 -58 27 -58
47 0 17 -47 112 -66 133 -7 9 -32 58 -54 110 -55 128 -96 209 -153 307 -94
162 -113 256 -82 400 16 73 47 141 113 242 23 35 42 70 42 78 0 16 18 50 42
77 25 28 44 8 52 -55 6 -43 33 -99 57 -119 4 -3 9 -15 13 -27 4 -13 15 -23 25
-23 15 0 20 11 25 51 9 64 72 237 97 265 20 22 25 50 9 56 -6 2 -4 57 5 148 8
80 16 195 17 255 l3 110 -39 65 c-40 65 -107 140 -125 140 -16 0 -48 38 -99
115 -84 127 -105 201 -77 268 8 20 15 53 15 74 0 21 5 45 10 53 9 13 14 11 35
-12 13 -16 27 -28 31 -28 4 0 17 -8 28 -18 54 -49 176 -69 196 -33 15 28 12
57 -6 72 -55 46 -87 182 -88 384 -1 152 -15 226 -59 312 -17 32 -7 73 18 73 9
0 30 -6 48 -14z m7577 -1587 c0 -19 -39 -61 -72 -78 -27 -13 -34 -24 -40 -60
-15 -90 50 -134 222 -150 148 -14 277 9 415 74 275 130 276 130 470 128 105
-1 180 -7 250 -21 55 -11 135 -25 177 -32 75 -12 76 -13 66 -36 -6 -13 -17
-24 -24 -24 -7 0 -22 -12 -33 -26 -31 -40 -30 -152 2 -180 28 -26 74 -55 112
-73 42 -19 369 -33 458 -19 50 8 95 8 180 -2 69 -9 189 -13 312 -11 l200 3 42
-33 c85 -69 81 -132 -15 -220 -71 -66 -162 -108 -339 -159 -243 -70 -357 -144
-402 -263 -25 -69 -27 -110 -4 -132 40 -41 115 -45 241 -15 46 11 85 20 86 20
6 0 17 -60 23 -116 4 -40 0 -61 -17 -95 -28 -56 -164 -188 -254 -247 -38 -25
-102 -75 -142 -111 -115 -103 -137 -119 -179 -127 -22 -4 -53 -17 -70 -29 -16
-12 -79 -46 -138 -75 -120 -59 -137 -80 -137 -164 0 -47 19 -80 61 -105 l29
-18 -82 -36 c-46 -21 -89 -37 -96 -37 -7 0 -52 -15 -100 -34 -135 -53 -309
-95 -434 -107 -142 -12 -223 -26 -268 -44 -19 -7 -48 -16 -64 -20 -42 -9 -133
-104 -141 -148 -8 -39 -14 -42 -110 -53 -101 -11 -244 -52 -320 -92 l-73 -38
16 40 c11 30 15 78 15 181 0 198 -12 249 -83 365 -32 52 -63 107 -69 121 -14
39 -238 249 -264 249 -11 0 48 78 133 176 78 91 249 235 339 286 36 21 131 70
211 109 80 39 159 81 175 93 17 12 47 30 68 41 20 11 37 22 37 26 0 8 146 80
183 90 18 4 66 17 107 29 151 43 439 100 508 100 31 0 42 4 42 15 0 18 -58 20
-195 5 -49 -5 -148 -12 -219 -15 -70 -3 -174 -12 -230 -21 -55 -8 -166 -22
-246 -29 -226 -21 -307 -49 -605 -215 -114 -64 -403 -325 -463 -419 -9 -14
-31 -45 -48 -68 -17 -22 -34 -53 -38 -68 -6 -24 -10 -26 -39 -21 -18 4 -97 10
-177 15 -93 5 -161 14 -190 25 -25 10 -54 20 -65 23 -11 3 -43 23 -71 44 -31
24 -69 42 -95 47 -59 11 -77 23 -199 127 -19 17 -48 36 -63 43 -16 7 -59 35
-97 64 l-69 51 14 28 c8 15 15 36 15 45 0 9 20 50 44 90 24 41 52 97 62 126
26 80 118 258 153 298 17 19 46 58 63 85 63 98 277 340 365 412 l46 38 37 -42
c30 -34 38 -53 43 -95 4 -29 2 -71 -4 -93 -6 -22 -13 -55 -16 -72 -7 -44 15
-44 44 0 13 17 36 47 53 65 16 19 32 42 35 53 4 10 11 19 16 19 5 0 52 42 104
93 52 51 106 100 122 108 15 7 71 40 123 73 90 55 126 73 310 149 41 17 116
53 165 79 98 51 105 53 105 37z m-2856 -550 c122 -41 140 -50 252 -121 l62
-39 25 -92 c14 -51 33 -126 42 -167 9 -41 20 -94 26 -117 5 -23 9 -53 9 -66 0
-47 99 -229 158 -292 65 -68 138 -130 173 -145 13 -5 31 -14 39 -20 8 -5 56
-28 105 -51 50 -22 111 -52 136 -65 26 -13 55 -24 65 -24 11 0 28 -7 38 -15
11 -8 27 -15 37 -15 9 0 40 -14 70 -30 30 -17 78 -41 107 -55 28 -14 52 -30
52 -35 0 -6 6 -10 13 -10 8 0 32 -13 53 -28 57 -41 181 -72 290 -72 95 0 236
-30 326 -69 107 -46 290 -207 315 -277 5 -16 15 -45 22 -64 40 -115 17 -349
-58 -575 -80 -247 -200 -433 -410 -638 -56 -56 -113 -107 -125 -113 -11 -6
-53 -19 -92 -28 -77 -19 -336 -143 -363 -175 -31 -35 -96 -114 -101 -121 -10
-14 -66 -38 -120 -51 -53 -12 -187 -73 -260 -118 -19 -11 -46 -26 -60 -33 -58
-28 -209 -172 -254 -243 -94 -145 -106 -173 -150 -345 -25 -99 -97 -334 -122
-398 -13 -34 -24 -73 -24 -86 0 -65 -96 -291 -165 -388 -50 -72 -165 -162
-293 -231 -84 -45 -229 -107 -252 -107 -35 0 -162 -35 -255 -70 -142 -54 -206
-59 -342 -24 -87 22 -117 35 -153 65 -25 20 -69 45 -98 56 -51 19 -55 22 -72
74 l-19 54 27 28 c20 21 35 27 68 27 52 0 143 29 204 64 64 37 283 142 323
155 72 24 251 200 302 298 11 21 46 73 78 117 32 43 75 109 97 147 22 37 46
74 53 81 38 39 158 263 195 363 38 106 107 273 118 290 8 11 14 27 14 36 0 9
7 22 15 29 8 7 15 20 15 30 0 9 11 33 25 53 13 20 37 60 52 89 16 29 41 73 57
98 28 44 179 216 224 255 12 11 35 33 50 49 59 65 129 129 165 152 38 25 55
49 43 62 -4 3 -15 1 -24 -6 -9 -7 -39 -23 -67 -36 -27 -13 -61 -36 -74 -50
-14 -14 -29 -26 -35 -26 -5 0 -36 -20 -67 -45 -32 -25 -61 -45 -66 -45 -4 0
-53 -51 -109 -113 -94 -105 -166 -204 -210 -288 -27 -51 -52 -102 -58 -119 -3
-8 -10 -22 -14 -30 -35 -60 -121 -273 -146 -358 -24 -82 -126 -270 -173 -319
-24 -24 -43 -47 -43 -51 0 -4 -14 -23 -30 -42 -17 -19 -44 -56 -61 -82 -17
-27 -34 -48 -38 -48 -3 0 -27 -27 -51 -60 -25 -33 -48 -60 -52 -60 -3 0 -19
-11 -35 -24 -15 -13 -46 -29 -68 -36 -22 -7 -74 -30 -115 -51 -41 -21 -102
-50 -135 -65 -33 -15 -81 -37 -106 -50 l-47 -23 58 88 c32 48 72 115 89 148
46 91 150 264 177 293 36 40 102 185 109 243 3 28 20 80 37 115 19 41 37 103
49 175 54 314 52 279 41 571 -5 163 -14 281 -20 293 -17 32 -16 263 1 383 27
189 28 200 12 200 -8 0 -24 -21 -36 -47 -12 -27 -24 -50 -28 -53 -13 -11 -51
-90 -51 -107 0 -11 -4 -23 -9 -29 -10 -10 -27 -82 -42 -179 -5 -33 -11 -207
-14 -388 l-6 -327 -29 -44 c-17 -24 -30 -50 -30 -57 0 -7 -12 -32 -26 -56 -14
-24 -30 -72 -35 -106 -5 -34 -23 -89 -39 -122 -17 -33 -35 -88 -40 -121 -10
-61 -43 -148 -59 -159 -12 -7 -83 -111 -103 -150 -34 -69 -162 -292 -179 -314
-17 -21 -19 -22 -20 -5 -3 79 -20 179 -40 234 -13 36 -27 67 -30 70 -17 14
-63 121 -71 165 -43 241 -59 368 -64 515 -5 137 -3 151 25 265 17 66 31 129
31 140 0 12 4 25 9 30 5 6 19 46 30 90 12 44 26 89 31 100 22 48 39 93 50 127
6 21 16 40 21 43 15 10 10 45 -6 45 -8 0 -15 -4 -15 -9 0 -4 -15 -24 -32 -44
-18 -20 -41 -47 -50 -59 -10 -13 -30 -39 -45 -59 -16 -20 -35 -47 -43 -60 -8
-12 -22 -30 -30 -39 -32 -33 -70 -87 -70 -100 0 -7 -16 -34 -35 -61 -43 -58
-62 -112 -105 -306 -11 -51 -25 -125 -29 -164 -16 -124 13 -391 52 -479 51
-116 50 -300 -3 -471 -27 -88 -59 -114 -149 -122 l-63 -5 -69 69 c-37 38 -73
69 -78 69 -6 0 -18 12 -26 28 -9 15 -27 45 -40 67 -64 105 -73 134 -84 280 -6
78 -11 202 -11 276 0 138 -20 271 -54 349 -15 38 -76 131 -105 165 -10 11 -31
44 -47 73 -15 30 -59 88 -96 130 -84 96 -108 144 -108 219 0 32 -4 74 -10 93
-5 19 -14 76 -19 125 -6 50 -17 140 -24 200 -16 132 -7 359 18 450 9 33 19 88
22 123 6 61 21 80 40 49 4 -8 27 -26 51 -42 23 -15 42 -32 42 -36 0 -5 5 -9
10 -9 10 0 32 -21 71 -68 9 -10 24 -38 35 -60 10 -23 21 -42 25 -42 4 0 13
-16 20 -35 7 -19 19 -35 27 -35 15 0 14 20 -8 95 -6 22 -15 56 -20 76 -11 42
-82 185 -107 216 -54 64 -212 180 -358 261 -161 89 -295 189 -295 219 0 9 -58
73 -128 142 -84 83 -133 138 -141 161 -23 66 -43 185 -43 250 0 56 6 76 40
141 78 150 245 354 322 394 34 18 157 45 203 45 18 0 44 6 58 14 14 7 48 16
75 20 68 9 147 28 161 38 6 5 53 13 103 19 51 5 96 11 100 14 5 3 54 10 109
15 74 7 133 21 223 52 120 41 126 42 258 42 133 1 136 1 195 -31 33 -18 77
-35 98 -39 21 -3 46 -14 56 -23 49 -42 137 -153 177 -221 23 -41 59 -92 79
-113 19 -20 35 -43 35 -50 0 -15 22 -67 46 -107 57 -97 108 -276 120 -422 3
-50 10 -78 17 -77 19 0 65 109 78 184 17 100 5 389 -21 490 -11 42 -29 90 -41
107 -12 17 -43 72 -68 123 l-47 92 81 5 c48 3 95 13 116 23 36 18 132 88 161
116 9 9 54 36 100 59 45 24 94 51 108 60 14 10 54 29 90 43 149 60 213 61 374
6z m-9644 -1217 c64 -62 64 -59 1 -272 -69 -232 -81 -317 -53 -402 11 -35 30
-132 41 -217 25 -191 53 -259 127 -313 27 -20 64 -39 82 -43 18 -4 36 -13 38
-20 9 -22 111 -86 166 -103 34 -11 88 -16 153 -16 94 -1 104 2 164 32 56 30
67 32 91 22 48 -20 64 -47 71 -119 4 -36 12 -95 18 -131 6 -36 15 -108 19
-160 6 -61 17 -111 30 -140 12 -25 28 -77 36 -116 43 -203 209 -490 314 -540
26 -12 67 -52 118 -114 89 -108 111 -130 131 -130 16 0 16 0 -4 -46 -12 -29
-17 -73 -18 -174 -1 -74 -8 -170 -15 -213 -11 -69 -11 -89 5 -174 12 -64 25
-104 40 -122 21 -24 22 -30 12 -78 -8 -38 -7 -65 2 -105 16 -74 89 -195 150
-251 53 -46 65 -52 298 -132 130 -45 145 -55 185 -135 21 -42 23 -57 21 -208
l-2 -163 -31 -57 c-18 -31 -41 -67 -52 -78 -11 -12 -40 -66 -65 -120 -92 -200
-93 -203 -92 -305 1 -52 -6 -139 -14 -194 -9 -55 -21 -158 -28 -230 -7 -77
-18 -136 -26 -146 -7 -8 -13 -22 -13 -30 0 -8 -5 -20 -11 -26 -6 -6 -15 -74
-20 -155 -5 -79 -11 -162 -15 -186 -12 -80 48 -183 188 -328 l69 -71 -37 -37
c-20 -20 -38 -35 -39 -34 -1 2 -13 32 -25 68 -25 71 -64 119 -125 155 -57 34
-108 39 -252 25 -109 -10 -144 -9 -233 4 -58 8 -195 25 -305 36 -110 12 -243
27 -295 35 -757 110 -790 121 -1150 361 -19 13 -84 72 -145 130 -60 59 -125
118 -143 132 -38 29 -412 427 -412 439 0 5 -21 30 -45 57 -25 27 -45 52 -45
55 0 10 -216 240 -246 262 -11 7 -34 34 -51 58 -18 24 -48 54 -67 68 -20 13
-36 27 -36 31 0 4 -40 48 -88 98 -48 50 -103 119 -122 153 -58 102 -127 192
-206 268 -41 40 -74 76 -74 80 0 5 -25 35 -56 67 -48 52 -106 129 -139 184 -5
10 -20 33 -31 52 -12 19 -55 100 -96 180 -42 80 -85 162 -97 184 -51 89 -60
131 -51 222 10 101 26 138 60 142 14 2 31 9 38 15 21 17 135 11 250 -13 121
-24 152 -41 152 -80 0 -50 53 -54 96 -7 52 58 53 63 48 234 -6 186 -32 368
-79 548 -18 72 -36 150 -40 175 -11 83 -37 224 -60 330 -18 82 -24 138 -24
255 -2 246 29 385 94 425 l33 20 34 -22 33 -22 -3 -132 c-4 -138 11 -228 45
-266 35 -39 91 -58 173 -58 77 0 99 6 187 48 32 15 123 97 123 111 0 4 35 43
78 87 42 45 100 119 129 165 29 46 73 113 98 149 82 115 170 254 184 288 7 17
16 32 20 32 4 0 13 21 20 48 14 48 120 258 153 302 62 83 138 191 138 198 0 4
24 33 53 65 29 32 68 76 87 97 20 24 43 40 56 40 12 0 41 7 64 15 23 8 61 15
84 16 22 0 50 4 61 9 42 18 65 10 115 -38z m4774 -877 c84 -16 239 -87 299
-136 17 -14 50 -52 71 -84 l40 -57 -24 -76 c-62 -199 -14 -428 115 -552 56
-54 101 -138 151 -288 52 -155 66 -185 121 -260 21 -28 70 -102 108 -163 39
-62 96 -141 128 -178 59 -66 84 -87 187 -158 102 -69 188 -143 229 -197 23
-29 67 -78 99 -109 68 -64 116 -129 151 -202 21 -44 74 -92 234 -214 32 -25
71 -63 87 -85 16 -23 56 -68 89 -101 35 -34 61 -68 61 -80 0 -11 11 -37 25
-58 30 -44 25 -45 -33 -12 -24 14 -83 37 -130 51 -48 15 -93 30 -102 34 -8 5
-33 13 -55 18 -102 27 -216 66 -226 78 -6 8 -17 14 -23 14 -7 0 -46 31 -87 68
-197 180 -364 318 -426 352 -21 11 -67 37 -103 57 -97 54 -161 78 -315 117
-76 20 -161 48 -189 62 -63 32 -195 132 -210 159 -6 11 -16 23 -23 27 -6 5
-22 27 -36 50 -14 24 -37 54 -51 67 -14 14 -26 30 -26 36 0 6 -13 27 -30 45
-16 18 -30 38 -30 44 0 13 -129 148 -185 194 -42 34 -127 70 -185 79 -19 3
-54 12 -77 20 -49 18 -113 11 -113 -13 0 -11 10 -15 38 -14 36 1 61 -4 183
-37 71 -19 152 -79 218 -162 28 -35 51 -67 51 -72 0 -4 11 -20 24 -36 13 -15
44 -67 69 -114 73 -138 119 -199 216 -289 111 -103 200 -152 336 -187 147 -38
387 -168 494 -268 36 -33 86 -76 111 -95 25 -19 84 -71 133 -115 48 -44 101
-87 117 -96 16 -9 35 -21 42 -27 7 -6 56 -24 108 -42 70 -22 112 -43 154 -77
51 -39 56 -47 42 -55 -11 -6 -106 -8 -239 -5 -199 4 -237 7 -369 35 -81 17
-178 39 -215 50 -37 11 -95 28 -128 37 -33 9 -94 33 -135 52 -102 47 -222 82
-322 91 -99 10 -500 -1 -648 -18 -87 -10 -130 -9 -255 4 -83 8 -173 22 -200
31 -28 8 -59 15 -70 15 -10 0 -62 21 -115 46 -76 37 -111 62 -172 123 -97 96
-82 80 -185 188 -48 50 -101 96 -116 102 -16 6 -65 11 -110 11 -77 -1 -84 -3
-114 -30 -18 -16 -33 -34 -33 -40 0 -20 47 -10 68 15 19 22 30 25 85 25 54 0
71 -5 108 -30 50 -32 93 -79 154 -166 62 -88 183 -200 267 -247 121 -68 213
-94 393 -113 152 -16 211 -16 465 6 291 24 551 -8 729 -91 170 -80 551 -174
756 -187 l100 -6 -70 -12 c-38 -7 -90 -13 -115 -13 -53 -1 -168 -24 -198 -40
-11 -6 -30 -11 -41 -11 -12 0 -29 -9 -38 -20 -10 -11 -30 -20 -45 -20 -15 0
-38 -5 -52 -11 -32 -15 -165 4 -218 30 -31 15 -38 16 -38 4 0 -8 13 -22 30
-31 16 -9 30 -20 30 -25 0 -9 115 -63 155 -73 17 -4 35 -10 40 -14 6 -5 28
-11 49 -16 22 -4 51 -13 65 -20 25 -13 24 -14 -27 -14 -29 0 -62 -5 -73 -11
-15 -7 -32 -6 -67 5 -101 33 -170 37 -437 27 -298 -10 -340 -19 -453 -94 -37
-24 -88 -56 -114 -71 -25 -14 -66 -41 -90 -59 -55 -42 -303 -143 -388 -157
-77 -14 -695 -20 -790 -9 -36 5 -112 13 -170 19 -57 7 -118 19 -135 27 -36 19
-121 88 -151 123 -12 14 -63 68 -114 120 -147 151 -201 212 -221 252 -11 21
-40 59 -65 86 -25 26 -64 71 -87 100 -41 54 -128 122 -204 161 -23 11 -111 44
-195 72 -84 28 -166 61 -183 74 -35 26 -95 138 -95 176 0 14 -16 52 -35 84
l-36 58 22 101 c13 62 23 154 26 236 3 88 12 160 24 205 21 77 25 233 8 320
-20 103 -38 273 -39 354 0 114 20 184 96 336 102 206 204 308 349 352 28 8 75
26 106 38 56 24 59 24 449 49 30 2 64 7 75 11 16 7 18 6 9 -6 -17 -21 -33
-130 -39 -267 -5 -103 -3 -122 9 -122 10 0 17 15 21 48 19 137 123 371 190
427 22 18 56 47 75 64 19 18 46 35 60 38 14 4 53 21 88 39 34 18 86 42 115 52
28 11 88 38 132 60 101 50 208 92 232 92 10 0 61 9 113 21 52 11 133 25 180
30 47 5 144 20 215 34 235 43 391 52 509 30z m769 -284 c99 -34 282 -75 407
-92 88 -11 480 -5 610 10 75 9 192 3 184 -10 -3 -5 -12 -35 -21 -66 -28 -103
-21 -294 19 -533 5 -30 13 -95 17 -145 13 -142 50 -217 177 -356 23 -26 54
-69 68 -97 14 -28 39 -66 54 -84 44 -51 85 -129 95 -178 5 -25 12 -146 17
-270 14 -355 33 -470 90 -543 11 -14 20 -37 20 -52 0 -26 20 -70 50 -110 8
-12 2 -9 -15 7 -17 15 -64 43 -105 62 -99 47 -209 112 -241 142 -14 13 -28 24
-32 24 -4 0 -31 19 -60 43 -30 24 -78 58 -108 75 -31 17 -103 81 -169 148 -63
64 -131 129 -151 144 -64 46 -158 165 -255 320 -39 61 -100 141 -148 190 -74
78 -206 256 -206 279 0 6 -23 41 -52 78 -50 67 -67 103 -123 273 -37 113 -97
222 -161 291 -61 66 -77 95 -93 164 -10 45 -8 59 14 130 14 44 25 104 25 133
0 28 1 52 3 52 2 0 42 -13 90 -29z m7739 -239 c98 -34 116 -46 246 -155 55
-48 95 -89 98 -104 9 -35 -2 -202 -15 -216 -38 -47 -127 -351 -116 -401 3 -17
9 -74 13 -127 8 -96 8 -98 75 -212 37 -64 67 -119 67 -123 0 -4 11 -21 24 -38
69 -92 77 -131 65 -315 -11 -168 -38 -310 -69 -372 -11 -21 -20 -49 -20 -61 0
-13 -8 -35 -17 -48 -20 -28 -62 -123 -70 -157 -8 -35 22 -29 37 7 7 16 30 53
52 82 22 29 57 82 79 118 46 76 61 100 72 114 4 6 19 26 32 45 l24 33 15 -37
c9 -21 16 -43 17 -49 0 -6 19 -44 43 -85 41 -72 45 -76 131 -120 122 -63 189
-127 252 -243 57 -103 70 -150 86 -317 11 -119 1 -229 -27 -296 -7 -16 -25
-70 -40 -120 -15 -49 -35 -101 -45 -115 -10 -14 -23 -41 -30 -60 -6 -19 -22
-51 -36 -70 -13 -19 -48 -78 -78 -130 -31 -52 -65 -107 -76 -121 -11 -14 -38
-59 -60 -100 l-41 -74 0 -187 c0 -156 3 -193 17 -223 13 -28 15 -40 6 -54 -6
-10 -26 -59 -43 -110 -33 -95 -91 -214 -118 -241 -9 -8 -31 -47 -49 -87 -18
-40 -40 -76 -47 -80 -8 -4 -41 -33 -74 -63 -33 -30 -84 -70 -114 -88 -29 -18
-72 -51 -96 -72 -52 -48 -59 -52 -164 -90 -101 -36 -243 -68 -358 -80 -47 -5
-119 -16 -160 -25 -100 -22 -304 -21 -385 0 -33 9 -101 23 -152 30 -139 22
-259 59 -397 124 -69 33 -136 63 -148 66 -13 4 -63 22 -113 40 -142 52 -219
68 -296 62 -37 -3 -70 -3 -74 1 -4 4 -25 15 -48 24 l-42 17 35 1 c46 0 141 30
229 70 l71 33 39 -36 c52 -47 73 -57 211 -103 107 -35 125 -38 261 -42 184 -5
268 8 386 59 68 30 109 56 159 102 67 62 68 62 128 62 102 1 157 38 308 204
32 36 58 80 83 144 33 81 38 106 44 206 5 100 4 121 -15 171 -22 62 -56 115
-91 143 -18 15 -23 28 -23 67 0 59 -38 165 -76 216 -25 32 -26 38 -14 57 34
55 40 76 39 147 -1 122 -30 173 -122 216 -60 27 -183 47 -236 38 -20 -3 -51
-12 -69 -21 -33 -14 -34 -14 -78 27 -27 25 -93 65 -161 97 -111 54 -117 55
-176 50 -34 -4 -75 -9 -92 -13 -27 -5 -26 -3 15 24 25 16 74 46 110 66 36 20
85 52 110 71 25 19 70 48 100 66 30 17 73 47 94 65 22 19 43 34 48 34 7 0 46
25 273 178 55 37 105 69 111 72 27 13 112 91 166 155 66 77 135 137 186 162
34 16 50 38 38 50 -9 9 -71 -23 -121 -62 -22 -18 -51 -38 -65 -45 -14 -7 -47
-34 -73 -61 -27 -27 -54 -49 -61 -49 -7 0 -30 -15 -52 -34 -21 -18 -50 -37
-64 -41 -14 -4 -60 -30 -104 -57 -43 -28 -104 -62 -135 -76 -31 -14 -75 -38
-98 -54 -23 -15 -48 -28 -55 -28 -8 0 -18 -4 -23 -9 -17 -15 -185 -100 -295
-148 -58 -25 -144 -65 -191 -88 -47 -24 -128 -58 -180 -75 -52 -18 -105 -38
-119 -45 -153 -80 -287 -132 -545 -211 -397 -121 -575 -141 -1085 -124 -168 5
-339 10 -380 10 l-75 1 45 39 c26 23 56 40 70 40 32 0 400 366 400 398 0 22
73 82 100 82 15 0 74 27 110 50 8 5 69 30 135 56 134 52 217 104 363 228 55
46 110 90 123 97 151 86 409 352 547 564 36 55 72 144 72 177 0 11 9 55 19 97
18 72 28 121 66 341 9 52 24 113 32 134 8 22 13 57 11 79 -2 35 1 41 29 56 43
22 289 248 314 287 10 18 42 60 70 95 56 70 101 137 143 215 24 44 34 52 79
68 29 10 70 31 92 46 45 33 210 116 270 136 31 11 103 13 330 10 l290 -4 87
-30z m-2007 -974 c-4 -29 -10 -69 -15 -88 -4 -19 -15 -80 -25 -135 -9 -55 -25
-134 -35 -175 -11 -41 -22 -91 -25 -110 -5 -38 -59 -117 -168 -248 -92 -112
-195 -211 -278 -268 -39 -27 -126 -94 -193 -149 -144 -119 -204 -158 -278
-184 -31 -11 -65 -24 -77 -30 -24 -13 -26 -5 -10 36 6 15 15 48 19 73 5 25 18
72 29 105 38 110 121 383 121 398 0 13 53 199 69 242 20 54 58 121 90 158 73
86 240 237 263 237 6 0 35 17 66 38 30 20 62 42 71 47 9 6 30 20 47 32 37 26
135 53 200 54 39 0 108 10 132 18 2 0 1 -23 -3 -51z m-3575 -1917 c48 -15 72
-29 92 -55 16 -19 44 -39 65 -46 60 -19 122 -59 188 -120 78 -72 199 -145 510
-305 144 -73 165 -86 165 -101 0 -6 22 -23 50 -38 27 -15 52 -31 55 -36 3 -5
42 -23 88 -40 45 -18 114 -47 152 -64 67 -31 139 -56 270 -91 133 -36 308
-100 404 -148 36 -18 93 -39 126 -46 33 -7 85 -23 115 -36 30 -13 89 -29 130
-36 91 -14 152 -24 250 -44 41 -8 99 -15 128 -15 48 0 52 -2 43 -18 -9 -17
-32 -18 -403 -15 -216 2 -424 8 -463 14 -38 5 -115 16 -170 24 -190 25 -246
37 -305 61 -33 13 -72 24 -87 24 -16 1 -64 14 -108 30 -105 37 -325 124 -350
137 -11 6 -76 30 -145 53 -111 38 -206 81 -220 100 -7 10 -109 80 -116 80 -3
0 -32 20 -63 43 -70 53 -105 74 -291 169 -171 88 -307 174 -339 214 -108 138
-119 169 -84 255 26 65 61 81 163 76 47 -3 114 -14 150 -26z m-5043 -291 c70
-69 135 -136 143 -149 26 -39 197 -171 257 -197 34 -15 91 -29 142 -35 47 -5
120 -14 161 -19 124 -16 880 -6 970 13 110 22 338 118 413 173 34 25 84 57
110 71 27 13 70 40 97 59 81 58 120 66 361 71 208 5 219 4 310 -20 52 -15 137
-31 189 -37 52 -6 110 -16 129 -22 58 -18 219 -1 303 32 104 40 217 96 242
119 70 65 226 97 431 86 195 -10 192 -8 174 -109 -6 -33 -13 -70 -15 -82 -4
-21 -16 -34 -101 -110 -35 -31 -58 -44 -69 -40 -29 11 -423 36 -572 36 -154 0
-353 -14 -442 -31 -144 -27 -163 -32 -245 -69 -84 -38 -127 -51 -235 -75 -41
-9 -88 -20 -105 -25 -16 -5 -68 -16 -115 -24 -166 -31 -270 -58 -270 -70 0
-13 -15 -18 -260 -81 -221 -57 -388 -112 -610 -203 -41 -17 -136 -54 -210 -83
-152 -59 -298 -129 -380 -183 -30 -20 -77 -48 -105 -62 -119 -62 -190 -103
-272 -158 -128 -86 -150 -100 -239 -153 -186 -111 -392 -264 -460 -341 l-30
-35 -52 40 c-66 53 -152 155 -184 218 -42 83 -50 243 -28 535 9 114 9 155 1
158 -14 5 -14 38 -1 94 5 24 14 89 19 145 9 94 13 109 57 190 48 89 103 175
116 181 48 22 93 66 119 117 36 71 62 179 53 218 l-6 29 40 -22 c23 -13 99
-80 169 -150z m9065 48 c-5 -7 -13 -27 -16 -44 -7 -30 -8 -31 -37 -21 -30 12
-39 27 -16 27 6 1 26 12 42 25 33 27 43 32 27 13z m353 -148 c84 -45 111 -63
116 -82 6 -23 3 -27 -31 -37 -73 -22 -120 -80 -120 -149 0 -34 -43 -91 -55
-72 -4 7 -27 21 -51 32 l-44 19 0 62 c0 77 -33 154 -92 214 -37 38 -39 43 -22
49 10 3 30 10 44 14 77 27 124 18 255 -50z m493 20 c18 -11 39 -20 46 -20 8 0
28 -16 45 -35 33 -38 40 -80 19 -107 -12 -14 -22 -14 -113 9 l-100 24 0 75 0
74 35 0 c19 0 50 -9 68 -20z m5105 1 c8 -8 12 -53 12 -139 0 -127 0 -127 -35
-192 -20 -36 -53 -91 -74 -124 -65 -102 -80 -149 -79 -256 0 -76 5 -112 27
-180 73 -224 93 -376 65 -485 -6 -22 -18 -73 -27 -113 -10 -40 -22 -76 -28
-80 -6 -4 -26 -36 -45 -71 -19 -35 -44 -74 -55 -86 -31 -32 -43 -138 -18 -166
22 -25 132 -26 216 -3 48 14 63 14 88 4 16 -7 30 -19 30 -28 0 -21 -79 -95
-149 -141 -91 -59 -127 -91 -219 -195 -145 -165 -209 -269 -265 -431 -36 -105
-38 -116 -38 -242 -1 -116 -4 -134 -20 -149 -11 -9 -19 -21 -19 -26 0 -5 -13
-37 -29 -71 -15 -34 -36 -83 -46 -109 -10 -26 -42 -74 -72 -107 -46 -51 -73
-70 -177 -121 -131 -65 -224 -135 -214 -162 5 -11 26 -18 71 -22 74 -8 122 -1
187 26 51 22 220 38 220 21 0 -18 -22 -29 -160 -78 -182 -64 -319 -123 -477
-205 -157 -81 -182 -100 -333 -250 -63 -63 -148 -137 -188 -165 -68 -47 -165
-121 -203 -155 -9 -8 -43 -33 -75 -55 -32 -21 -106 -87 -164 -145 -58 -59
-127 -122 -155 -142 -66 -47 -230 -129 -330 -164 -78 -28 -86 -28 -285 -29
-113 0 -236 1 -275 2 -38 2 -104 2 -145 1 -58 -1 -93 5 -155 26 -175 60 -257
125 -337 267 -29 53 -66 102 -100 133 -48 44 -50 48 -24 42 100 -24 111 -16
49 37 -96 82 -129 122 -196 232 -34 56 -62 224 -48 283 6 23 16 61 22 85 25
97 -13 195 -86 223 -64 24 -160 7 -190 -33 -13 -17 -231 -43 -366 -43 -109 0
-275 29 -356 62 -51 21 -110 83 -102 106 2 5 25 26 51 46 36 27 49 32 55 22 4
-7 24 -21 43 -31 19 -10 47 -27 61 -37 49 -37 173 -61 314 -62 199 -1 272 20
309 92 8 15 29 41 48 59 18 17 41 40 51 51 10 11 35 22 56 26 75 12 100 70 90
207 -5 61 -18 126 -37 184 -52 156 -64 247 -52 383 6 64 15 131 20 147 4 17
11 56 15 88 4 37 14 67 29 85 12 15 28 36 36 48 8 12 29 40 46 62 22 29 34 58
38 94 7 51 9 54 49 71 23 10 62 36 87 59 25 22 81 65 125 94 129 85 219 176
268 271 23 45 65 127 94 182 28 55 61 132 74 171 21 68 23 70 74 94 67 30 109
83 184 230 73 142 105 184 162 213 l44 22 22 -45 c12 -25 25 -65 28 -88 11
-70 15 -72 81 -45 33 13 70 30 84 38 25 15 160 151 160 162 0 3 8 15 18 27 9
11 31 37 47 58 65 79 151 167 195 197 42 29 74 47 209 119 68 35 87 24 45 -26
-129 -155 -186 -276 -170 -361 7 -38 50 -95 71 -95 13 0 75 67 75 82 0 8 48
58 56 58 3 0 25 16 49 36 44 36 180 86 270 99 l42 7 23 -47 c26 -54 78 -95
159 -126 51 -19 70 -21 211 -16 174 5 192 10 405 100 72 30 155 60 185 67 30
7 66 18 80 25 14 7 56 28 95 46 97 47 154 108 310 334 22 31 57 80 79 107 l38
50 80 -4 c43 -3 84 -10 91 -17z m-6660 -203 c-4 -13 -8 -60 -7 -105 l0 -83
-28 0 c-31 0 -113 -33 -123 -50 -3 -5 -25 -10 -49 -10 -50 0 -144 -30 -186
-60 -52 -37 -78 -95 -86 -188 l-7 -84 -36 7 c-20 3 -56 12 -81 20 -25 8 -66
17 -92 20 -26 3 -67 17 -92 30 -24 13 -65 27 -91 30 -25 4 -44 10 -41 13 7 7
-122 65 -295 133 -124 48 -138 56 -155 88 -11 20 -32 50 -47 68 l-28 32 38 35
c35 33 42 36 88 31 137 -12 608 -16 767 -5 183 12 244 22 428 69 142 36 133
35 123 9z m560 -3 c20 -14 37 -32 37 -40 0 -8 -18 -27 -41 -42 -35 -23 -54
-28 -127 -31 -80 -4 -91 -2 -134 23 -27 15 -48 28 -48 30 0 13 27 62 40 72 10
8 54 12 125 13 102 0 113 -2 148 -25z m-4974 -38 l155 -12 -35 -26 c-34 -26
-85 -55 -194 -115 -33 -18 -100 -44 -150 -58 -49 -14 -110 -32 -135 -41 -57
-20 -469 -119 -580 -139 -117 -21 -155 -25 -400 -41 -291 -21 -349 -28 -538
-69 -239 -52 -565 -171 -652 -238 -96 -74 -137 -113 -211 -203 -80 -97 -133
-189 -145 -250 -5 -29 -6 -30 -58 -27 -52 4 -89 -7 -317 -86 -138 -49 -356
-175 -453 -263 -57 -51 -156 -128 -229 -178 -108 -73 -231 -213 -377 -426 -86
-125 -124 -174 -136 -175 -15 0 -74 -90 -110 -167 -16 -34 -36 -64 -44 -66
-16 -4 -30 -29 -78 -142 -30 -69 -41 -101 -61 -180 -6 -22 -26 -92 -46 -155
-40 -129 -62 -223 -75 -323 -5 -37 -14 -75 -19 -85 -5 -9 -14 -53 -21 -97 -7
-44 -15 -86 -19 -92 -5 -10 -22 -3 -61 22 -30 19 -60 35 -66 35 -17 0 -21 15
-40 175 -15 123 -16 157 -5 285 14 162 23 218 51 335 10 44 21 92 24 106 3 14
20 43 37 65 17 21 55 89 85 150 29 61 69 132 88 158 20 25 61 90 92 144 79
137 134 218 193 285 28 32 51 61 51 65 0 4 45 52 100 107 55 55 100 104 100
108 0 5 23 33 51 62 28 30 58 63 66 75 36 51 228 197 413 315 26 17 67 43 91
59 24 15 60 38 79 50 19 13 74 49 122 82 233 157 310 204 458 279 80 39 206
95 280 124 74 29 169 66 210 83 190 78 331 127 346 121 5 -2 36 8 67 22 58 25
279 85 316 85 12 0 38 9 58 20 20 10 61 24 92 30 31 6 64 15 74 21 10 5 52 14
95 19 112 14 184 28 295 56 141 35 270 60 442 84 299 41 453 47 724 27z m5866
-170 c62 -15 102 -32 127 -52 48 -38 73 -84 64 -118 -10 -41 -65 -97 -116
-119 -58 -26 -202 -37 -226 -18 -33 29 -114 219 -114 271 0 60 110 75 265 36z
m-5622 -179 l19 -25 -46 -89 c-83 -159 -142 -249 -210 -318 -28 -29 -61 -56
-73 -60 -12 -4 -25 -16 -28 -26 -11 -35 -159 -146 -290 -218 -260 -142 -385
-254 -538 -482 -151 -226 -260 -341 -425 -453 -31 -21 -66 -46 -77 -56 -11 -9
-51 -36 -90 -59 -38 -23 -98 -64 -132 -90 -145 -111 -212 -151 -293 -175 -27
-8 -46 -20 -48 -29 -3 -15 7 -17 80 -14 46 1 99 8 118 16 61 24 144 61 175 77
17 9 66 35 110 58 44 23 108 60 142 81 34 21 101 64 150 94 141 88 274 232
430 465 82 122 202 249 303 320 41 29 143 90 225 135 267 146 319 180 455 295
74 63 135 113 137 111 8 -7 -30 -108 -50 -133 -94 -116 -201 -312 -217 -398
-6 -33 -23 -105 -38 -160 -24 -90 -27 -116 -26 -265 0 -128 5 -188 22 -268 32
-151 29 -230 -12 -367 -19 -62 -44 -131 -54 -152 -30 -57 -158 -229 -227 -303
-100 -107 -317 -320 -326 -320 -4 0 -13 -9 -19 -19 -5 -11 -19 -23 -30 -26
-24 -8 -27 -35 -4 -35 35 0 211 97 222 123 2 4 9 7 16 7 7 0 21 10 32 21 10
12 52 46 92 76 40 29 75 60 78 67 3 7 34 37 70 67 65 53 187 206 226 282 10
21 35 90 54 152 31 105 34 123 34 248 0 96 -6 165 -21 239 -31 159 -35 252
-14 342 10 42 22 79 27 82 4 3 8 14 8 24 0 10 16 53 35 94 19 42 35 79 35 81
0 24 121 175 225 281 70 71 124 124 121 119 -2 -6 -10 -57 -16 -114 -6 -56
-16 -115 -21 -129 -6 -15 -17 -54 -24 -87 -8 -33 -27 -107 -44 -165 -42 -143
-40 -289 5 -428 24 -74 106 -212 126 -212 6 0 30 -18 55 -40 25 -22 50 -40 56
-40 6 0 25 -11 43 -25 18 -14 37 -25 43 -25 6 0 11 -4 11 -8 0 -5 19 -17 43
-28 97 -44 193 -121 219 -179 6 -14 15 -25 19 -25 4 0 10 -11 13 -24 3 -14 17
-38 31 -55 14 -16 39 -59 55 -94 27 -59 30 -76 31 -184 2 -112 0 -122 -30
-198 -17 -44 -39 -95 -49 -114 -23 -46 -107 -148 -162 -196 -25 -22 -84 -76
-131 -120 -47 -44 -112 -95 -145 -114 -68 -40 -120 -85 -139 -122 -20 -38 -99
-53 -239 -44 -71 4 -134 3 -175 -5 -191 -34 -402 -158 -560 -327 -50 -54 -91
-101 -91 -104 0 -4 -16 -33 -35 -65 -19 -32 -35 -71 -35 -87 0 -15 -13 -54
-30 -85 -16 -31 -39 -77 -50 -101 -47 -98 -79 -135 -155 -179 -132 -75 -342
-144 -523 -172 -77 -12 -185 -1 -228 23 -24 14 -116 119 -157 180 -48 72 -147
164 -212 197 -44 22 -94 36 -179 50 -64 11 -134 24 -154 30 -159 45 -272 64
-367 62 -124 -1 -197 15 -320 72 -79 37 -107 57 -170 121 -111 112 -120 137
-132 356 -12 222 -9 249 29 309 78 122 101 180 106 266 5 97 -14 172 -58 230
-16 21 -43 57 -60 78 -25 32 -30 48 -30 92 0 31 -10 81 -25 122 -14 38 -25 82
-25 97 0 34 27 130 50 175 14 28 130 144 170 170 42 28 175 162 223 225 33 44
77 98 97 121 21 22 45 64 55 93 16 48 16 58 1 139 -32 174 -14 279 62 368 23
27 76 90 117 141 85 103 126 136 235 189 245 117 624 200 1000 219 155 8 298
23 400 41 97 18 512 116 580 137 25 8 98 31 163 51 105 32 196 73 307 136 41
23 47 22 73 -12z m4203 -3 c43 -18 75 -53 71 -79 -5 -43 -264 -76 -315 -40
-30 21 -28 34 12 73 24 24 50 36 92 46 81 17 99 17 140 0z m-2690 -156 c49
-18 125 -42 169 -54 44 -13 127 -38 185 -58 137 -46 272 -77 335 -77 28 0 69
-9 94 -20 24 -11 54 -20 67 -20 15 0 24 -6 24 -16 0 -25 50 -105 104 -164 59
-65 120 -189 170 -345 54 -168 104 -233 226 -295 158 -80 361 -116 592 -106
360 16 546 17 633 6 50 -6 132 -15 183 -19 62 -6 99 -14 111 -25 10 -9 21 -16
26 -16 4 0 27 -20 51 -44 l43 -45 -29 -39 c-40 -56 -50 -101 -50 -228 l0 -110
35 -41 c19 -23 72 -66 117 -95 76 -50 111 -65 268 -112 69 -21 103 -49 286
-239 48 -50 117 -139 162 -210 72 -114 69 -207 -7 -292 -20 -22 -59 -78 -86
-124 -27 -46 -81 -119 -119 -161 -39 -42 -89 -97 -111 -124 -22 -26 -61 -60
-87 -77 -58 -37 -302 -159 -320 -159 -19 0 -96 -55 -119 -83 -16 -22 -26 -57
-15 -57 2 0 32 13 67 29 54 24 109 39 277 76 l23 6 -26 -41 c-14 -22 -25 -43
-25 -47 0 -5 -9 -24 -19 -44 -28 -52 -50 -131 -67 -238 -7 -52 -18 -99 -23
-105 -5 -6 -12 -31 -16 -56 -9 -58 -84 -338 -96 -359 -5 -9 -25 -60 -44 -114
-19 -54 -45 -112 -57 -129 -32 -42 -106 -115 -148 -144 -19 -13 -62 -44 -95
-69 -33 -24 -87 -61 -120 -81 -33 -20 -84 -52 -112 -71 -29 -18 -79 -50 -110
-70 -32 -20 -76 -48 -98 -63 -126 -82 -287 -100 -595 -66 -282 32 -287 33
-377 98 -29 21 -55 38 -59 38 -4 0 -35 18 -69 40 -72 47 -129 68 -330 120
-186 47 -230 56 -375 75 -63 8 -135 19 -160 23 -612 121 -686 140 -852 222
l-66 32 14 40 c18 51 17 135 -1 261 -16 116 -36 178 -73 232 -77 111 -299 180
-405 126 -37 -19 -37 -19 -37 1 0 25 46 160 73 213 11 22 33 55 49 73 15 18
47 62 69 97 31 49 55 73 106 105 80 51 299 255 407 378 87 101 109 141 157
292 31 97 34 117 36 255 3 184 -4 228 -60 347 -50 107 -99 175 -169 235 -47
40 -164 103 -192 103 -7 0 -33 15 -57 33 -24 19 -58 41 -76 50 -34 18 -157
109 -184 137 -9 9 -27 39 -39 66 -19 41 -23 68 -25 159 0 61 3 124 8 140 28
92 50 175 58 213 5 24 15 62 23 85 l15 42 1 -39 c0 -51 36 -170 65 -222 13
-22 43 -58 67 -78 24 -21 54 -47 67 -59 13 -12 59 -44 102 -72 145 -93 199
-135 249 -196 27 -33 50 -64 50 -69 0 -5 6 -15 13 -22 24 -25 86 -163 96 -215
6 -28 13 -87 17 -132 5 -58 11 -81 20 -81 8 0 14 9 14 19 0 11 4 22 9 25 16
10 33 141 29 218 -5 83 -58 243 -98 298 -64 86 -139 151 -308 267 -62 43 -116
88 -172 143 -38 37 -49 59 -68 122 -12 42 -22 91 -21 110 1 47 43 335 50 343
3 3 24 -18 47 -47 56 -74 175 -186 247 -234 66 -44 71 -47 260 -143 324 -165
434 -252 509 -406 21 -44 43 -89 49 -100 15 -29 47 -155 47 -187 0 -16 4 -28
9 -28 4 0 11 -30 15 -67 3 -38 13 -97 21 -133 8 -36 20 -100 27 -142 6 -43 16
-78 20 -78 4 0 8 -10 8 -22 0 -40 50 -210 72 -247 29 -48 211 -235 320 -327
48 -41 108 -85 135 -97 26 -12 59 -30 73 -39 14 -9 68 -28 120 -43 52 -15 119
-36 148 -46 29 -11 69 -19 90 -19 20 0 61 -9 90 -20 30 -11 79 -24 110 -29 31
-5 86 -16 122 -24 36 -9 99 -23 140 -31 41 -8 85 -17 98 -21 16 -6 22 -3 22 8
0 20 -22 32 -75 42 -22 3 -53 13 -70 20 -35 15 -189 68 -366 124 -115 37 -241
94 -279 126 -8 7 -26 16 -40 20 -14 4 -34 15 -45 24 -11 10 -33 26 -50 36 -52
32 -218 179 -289 256 -37 40 -79 95 -92 120 -40 80 -65 224 -79 459 -9 146
-35 350 -51 400 -61 188 -182 372 -307 468 -69 53 -258 163 -382 223 -222 107
-319 179 -441 327 -35 43 -57 131 -38 156 12 17 15 17 47 1 19 -9 43 -25 53
-36 9 -10 23 -19 30 -19 20 0 136 -60 164 -85 41 -36 152 -109 195 -127 22 -9
114 -40 205 -68 191 -60 271 -95 343 -147 84 -60 201 -158 246 -205 122 -128
211 -242 211 -271 0 -8 9 -26 20 -40 11 -14 20 -30 20 -36 0 -6 6 -30 14 -53
8 -24 19 -62 26 -85 7 -28 16 -43 26 -43 18 0 14 40 -13 118 -8 24 -21 72 -28
105 -16 73 -61 235 -81 292 -53 152 -230 343 -414 447 -45 25 -188 78 -373
137 -113 36 -143 50 -212 101 -71 53 -133 118 -157 163 l-20 40 85 -47 c46
-25 124 -60 173 -77z m3461 99 c21 -12 39 -22 41 -23 9 -6 -28 -108 -44 -118
-22 -16 -157 -56 -195 -59 -14 -1 -74 11 -133 27 l-107 30 6 35 c8 42 19 56
59 77 65 34 143 49 268 52 52 1 75 -4 105 -21z m1004 -270 c2 -87 -1 -113 -15
-161 -10 -35 -17 -42 -43 -48 -17 -3 -47 -15 -66 -26 l-34 -21 -6 56 c-3 30
-17 76 -30 101 l-24 47 66 27 c37 14 82 40 101 56 19 17 38 30 43 31 4 0 7
-28 8 -62z m-2811 -130 c168 1 359 4 425 6 66 2 123 2 128 -1 4 -2 -6 -15 -22
-29 -16 -14 -41 -45 -55 -71 -23 -39 -26 -58 -26 -135 0 -68 4 -97 19 -126 31
-60 119 -137 198 -175 l71 -34 -191 -8 c-275 -12 -399 -10 -505 9 -103 19
-212 65 -243 104 -10 14 -34 73 -53 131 -37 118 -115 282 -144 303 -45 32 -38
41 29 32 35 -4 201 -7 369 -6z m1089 -38 c140 -16 201 -65 201 -161 0 -44 -4
-53 -42 -93 -56 -58 -143 -86 -283 -93 -90 -4 -104 -2 -144 19 -57 29 -111
106 -111 155 0 47 36 109 78 135 75 46 148 56 301 38z m1165 -16 c133 -34 150
-66 95 -176 -23 -47 -43 -71 -77 -94 -85 -57 -133 -69 -277 -69 -115 1 -140 4
-214 29 -102 34 -131 60 -131 115 0 62 16 88 59 95 20 3 51 16 69 29 18 14 54
27 82 31 27 4 52 11 55 16 3 6 18 10 33 10 15 1 50 7 77 15 68 19 154 18 229
-1z m-8559 -531 c3 -21 11 -57 17 -80 6 -23 9 -71 6 -106 -3 -57 -8 -69 -48
-120 -25 -31 -73 -93 -108 -137 -54 -69 -222 -227 -255 -239 -6 -2 -22 -14
-36 -26 -14 -13 -67 -57 -118 -99 -101 -83 -164 -159 -188 -225 -10 -30 -15
-82 -15 -169 0 -161 7 -175 151 -316 126 -125 139 -141 149 -198 11 -57 -8
-104 -73 -185 -29 -38 -64 -87 -77 -110 -13 -24 -27 -43 -30 -43 -4 0 -32 9
-63 19 -62 22 -222 56 -307 66 -89 11 -305 -44 -390 -98 -19 -12 -48 -28 -65
-35 -35 -15 -101 -59 -130 -85 -19 -18 -88 -57 -100 -57 -3 0 -5 32 -5 71 0
70 -11 157 -31 249 -10 46 -6 93 27 310 26 176 50 235 184 455 62 101 97 152
152 220 27 33 63 78 81 100 49 61 227 235 271 264 21 14 49 33 61 41 33 23
169 124 175 130 12 12 119 101 163 134 26 20 105 65 175 100 113 57 162 79
329 151 23 10 50 26 59 36 25 27 32 24 39 -18z m7872 -423 c11 0 49 -22 213
-120 39 -24 78 -40 97 -40 18 0 67 -11 110 -25 215 -70 558 -82 837 -28 44 8
116 19 160 23 45 5 92 12 105 16 23 7 23 6 8 -17 -9 -13 -23 -53 -32 -89 -9
-36 -23 -90 -30 -120 -21 -82 -38 -283 -30 -364 7 -75 36 -190 80 -316 39
-109 46 -210 21 -280 -29 -83 -47 -92 -237 -121 -68 -11 -67 -11 -309 51 -73
19 -112 40 -106 58 29 89 30 102 16 204 -7 57 -14 139 -15 183 -1 66 -6 89
-28 132 -15 29 -27 65 -27 81 0 51 -147 174 -277 233 -36 16 -72 29 -80 29 -8
0 -51 15 -96 34 -45 19 -109 42 -142 51 -125 36 -191 59 -217 77 -14 10 -30
18 -34 18 -4 0 -29 15 -56 33 -41 28 -47 36 -48 67 0 19 14 73 31 120 17 47
33 98 36 113 5 26 7 27 22 12 10 -8 22 -15 28 -15z m-8782 -1840 c50 -10 122
-33 160 -49 39 -17 78 -31 88 -31 15 0 17 -11 17 -79 0 -93 21 -195 55 -260
14 -28 77 -99 162 -182 l138 -136 95 -22 c182 -42 166 -33 173 -98 8 -79 52
-159 113 -206 113 -87 365 -190 544 -222 47 -9 150 -20 230 -25 181 -12 248
-28 294 -68 36 -32 41 -33 173 -53 74 -11 83 -15 93 -39 6 -14 21 -37 34 -51
53 -57 75 -112 82 -200 9 -117 -6 -182 -63 -266 -65 -96 -83 -148 -83 -242 0
-68 4 -86 31 -139 l31 -60 -31 -64 c-17 -36 -31 -72 -31 -81 0 -8 -6 -22 -13
-29 -7 -7 -32 -46 -56 -85 -23 -40 -45 -73 -50 -73 -4 0 -35 -35 -68 -78 -33
-43 -75 -89 -92 -102 -17 -14 -55 -47 -84 -73 -28 -26 -80 -61 -114 -78 -35
-17 -65 -35 -69 -40 -6 -10 -62 -49 -113 -79 -68 -41 -284 -109 -343 -110 -48
0 -34 31 35 75 78 50 257 226 285 282 12 22 25 43 30 45 16 7 81 100 99 143
10 25 21 45 26 45 4 0 7 7 7 15 0 8 17 52 39 98 45 98 71 217 74 342 2 81 0
90 -17 93 -16 3 -18 0 -13 -26 4 -20 1 -34 -8 -42 -8 -7 -15 -20 -15 -30 0
-17 -17 -61 -61 -159 -11 -24 -39 -73 -62 -110 -23 -36 -49 -78 -57 -92 -40
-71 -82 -122 -174 -214 -106 -106 -154 -145 -179 -145 -7 0 -33 -13 -55 -30
-23 -16 -45 -30 -50 -30 -4 0 -43 -18 -86 -40 -43 -22 -86 -40 -95 -40 -9 0
-21 -4 -26 -8 -12 -11 -178 -77 -225 -91 -19 -5 -64 -13 -99 -16 l-64 -7 36
43 c20 24 65 77 99 117 92 106 115 139 153 216 19 38 39 74 44 80 21 25 71
166 96 271 15 61 42 160 61 220 18 61 36 124 40 140 3 17 15 60 26 97 18 62
19 81 10 236 -10 185 -17 207 -98 308 -52 65 -155 100 -171 57 -6 -16 5 -29
55 -63 12 -8 32 -40 43 -70 19 -48 21 -74 20 -214 -1 -132 -5 -165 -21 -200
-10 -23 -22 -55 -25 -71 -17 -72 -99 -297 -135 -368 -49 -97 -106 -189 -146
-236 -17 -20 -39 -49 -48 -66 -23 -42 -62 -92 -127 -166 -30 -35 -63 -74 -71
-87 -23 -34 -143 -136 -223 -189 -38 -26 -89 -60 -113 -76 l-43 -29 7 28 c4
15 20 47 36 70 15 23 28 52 28 64 0 12 7 36 15 53 17 37 42 143 57 242 27 173
5 506 -42 639 -39 109 -136 221 -227 262 -29 12 -53 27 -53 32 0 11 -45 32
-70 32 -21 0 -27 -24 -10 -35 6 -3 10 -13 10 -21 0 -8 11 -32 25 -54 30 -47
107 -340 126 -480 7 -52 13 -156 12 -230 -2 -138 -28 -409 -43 -445 -5 -11
-11 -33 -13 -50 -7 -45 -40 -125 -70 -169 -15 -21 -27 -42 -27 -46 0 -5 -13
-13 -29 -18 -24 -8 -32 -7 -43 5 -7 9 -41 29 -74 44 -57 26 -65 34 -108 106
-26 43 -65 103 -86 133 -22 30 -51 88 -66 128 -15 41 -44 102 -64 135 -20 34
-49 84 -65 112 -15 27 -83 104 -149 170 -92 92 -150 140 -241 199 -185 121
-235 156 -304 214 -123 104 -206 144 -339 164 -46 6 -101 23 -135 40 -102 51
-226 86 -348 98 -137 13 -224 3 -297 -34 -28 -14 -62 -26 -75 -26 -14 0 -73
-11 -133 -24 -60 -13 -139 -27 -176 -31 l-67 -7 6 50 c5 42 0 60 -30 128 -19
43 -43 104 -53 134 -9 30 -44 118 -77 194 -70 163 -71 181 -18 354 17 56 45
148 62 205 38 127 72 195 143 287 31 40 80 113 110 164 34 58 71 106 102 132
152 126 367 226 586 270 63 13 109 15 193 10 123 -7 315 -30 379 -46 64 -16
189 -62 206 -75 8 -6 49 -31 90 -55 41 -24 92 -58 113 -77 20 -18 41 -33 46
-33 4 0 26 -14 47 -30 22 -17 48 -37 59 -45 10 -8 25 -15 32 -15 7 0 50 -36
95 -80 46 -44 88 -80 93 -80 6 0 18 -9 28 -20 9 -11 26 -20 36 -20 11 0 23 -4
26 -10 7 -11 84 -14 109 -4 17 6 22 34 7 34 -5 0 -16 15 -25 34 -9 19 -35 54
-59 78 -24 23 -71 76 -105 115 -93 110 -115 163 -68 163 45 0 191 60 296 122
126 73 211 116 265 134 58 19 167 16 270 -6z m4205 -352 c-21 -57 -41 -115
-44 -130 l-6 -26 -144 5 c-83 2 -169 0 -202 -6 -75 -14 -142 -59 -196 -131
-64 -85 -78 -123 -78 -217 0 -46 -4 -83 -9 -83 -5 0 -21 3 -37 6 l-29 5 2 89
c1 65 7 100 22 136 40 89 155 201 321 310 79 53 164 84 270 100 57 8 115 21
129 29 14 8 29 14 33 15 3 0 -11 -46 -32 -102z m4853 -388 c4 0 32 -16 62 -37
68 -45 148 -62 416 -93 47 -5 106 -19 131 -30 39 -17 51 -30 82 -89 20 -38 36
-73 36 -79 0 -5 -28 -7 -69 -4 -60 4 -75 1 -105 -18 -52 -32 -70 -71 -62 -139
10 -96 35 -144 124 -236 45 -47 82 -90 82 -95 0 -5 29 -56 64 -114 79 -126
101 -188 93 -259 -6 -63 -87 -271 -129 -334 -32 -47 -57 -138 -58 -208 0 -42
-22 -165 -40 -225 -5 -19 -10 -54 -10 -77 l0 -43 -44 33 c-77 59 -111 63 -321
38 -252 -32 -323 -20 -461 78 -66 46 -224 201 -224 219 0 5 -37 41 -82 81
l-83 72 -60 -2 c-33 -1 -72 4 -87 11 -36 17 -95 5 -103 -20 -8 -26 9 -84 34
-116 12 -15 20 -29 18 -30 -4 -5 -152 22 -237 42 -36 9 -79 26 -96 39 -44 34
-75 105 -81 191 l-6 72 36 11 c19 7 54 25 76 42 23 16 45 29 49 29 5 0 29 15
53 33 24 18 64 45 89 60 25 15 54 33 65 40 27 16 175 114 238 157 l52 35 71
-47 c39 -26 133 -96 208 -157 81 -64 151 -113 169 -117 18 -3 39 -12 47 -19 8
-7 31 -20 50 -29 45 -21 94 -57 150 -110 25 -24 68 -53 97 -66 36 -15 55 -30
63 -50 6 -15 25 -40 41 -56 16 -15 29 -38 29 -51 0 -14 6 -23 15 -23 10 0 15
10 15 26 0 33 -40 144 -51 144 -5 0 -11 17 -15 38 -3 20 -19 55 -35 77 -15 22
-46 65 -68 95 -21 30 -66 83 -99 117 -34 34 -70 80 -82 102 -24 48 -189 189
-341 291 l-68 46 43 89 c77 160 145 392 187 638 l22 128 51 -50 c29 -28 55
-51 59 -51z m-5018 -11 c17 -12 39 -34 48 -48 9 -14 27 -41 38 -59 27 -41 38
-91 28 -120 -7 -18 -16 -22 -53 -22 -25 0 -48 -4 -51 -10 -3 -5 -18 -10 -33
-10 -15 0 -39 -6 -54 -14 -15 -8 -48 -16 -75 -18 -44 -3 -49 -1 -63 27 -8 17
-16 66 -18 110 -3 71 -1 84 20 115 46 68 150 92 213 49z m-2777 -88 c31 -11
109 -29 172 -41 63 -11 139 -26 168 -31 62 -12 200 -79 228 -110 l19 -22 -79
7 c-221 18 -483 103 -589 192 l-29 24 27 0 c14 0 51 -9 83 -19z m3264 -5 c24
-8 57 -17 75 -21 17 -3 37 -12 43 -20 6 -7 18 -60 26 -116 l14 -103 -25 -37
c-34 -52 -55 -56 -118 -24 -114 60 -124 74 -151 203 -20 93 -19 96 40 117 49
18 45 18 96 1z m-1051 -388 c6 -13 20 -32 30 -43 15 -17 16 -27 7 -68 -5 -26
-8 -73 -6 -103 3 -60 8 -56 -77 -68 -22 -4 -54 -9 -71 -12 -25 -5 -42 1 -82
28 l-51 33 6 45 c13 99 82 189 155 201 70 11 77 10 89 -13z m-511 -152 l0 -55
-57 -6 c-70 -8 -127 -30 -170 -68 l-31 -27 -29 58 -30 58 76 18 c42 9 112 30
156 46 44 15 81 29 83 29 1 1 2 -23 2 -53z m1253 -20 c50 -21 144 -126 152
-170 18 -91 -31 -198 -107 -237 -92 -48 -242 -22 -315 54 -56 58 -75 100 -76
166 0 87 48 157 129 186 51 18 176 19 217 1z m530 -57 c18 -8 26 -21 30 -51 9
-69 -38 -144 -108 -174 -59 -24 -60 -22 -58 68 1 46 2 100 3 120 0 40 -6 37
92 46 9 1 28 -3 41 -9z m287 -130 c24 -11 89 -31 143 -44 55 -13 100 -25 101
-27 0 -2 9 -19 18 -38 9 -19 19 -44 22 -55 14 -51 150 -224 234 -299 12 -11
22 -24 22 -29 0 -4 14 -28 31 -53 16 -24 45 -75 62 -112 29 -61 32 -76 32
-162 0 -135 -27 -183 -177 -313 -73 -63 -88 -74 -267 -194 -51 -34 -114 -82
-140 -106 -25 -24 -60 -52 -76 -62 -29 -19 -90 -67 -130 -104 -11 -11 -39 -28
-61 -39 -23 -12 -56 -33 -73 -48 -18 -14 -34 -24 -38 -21 -6 7 28 57 52 77 19
15 20 40 2 40 -8 0 -22 -9 -32 -20 -10 -11 -24 -20 -31 -20 -7 0 -17 -6 -21
-13 -9 -13 -99 -84 -170 -133 -25 -18 -71 -39 -102 -47 -498 -141 -528 -145
-876 -126 -138 8 -331 13 -430 12 -177 -1 -181 -1 -254 -31 -74 -31 -118 -34
-149 -9 -30 24 -65 113 -70 178 -4 53 1 82 21 145 14 44 27 90 29 103 2 18 18
33 60 55 31 17 59 38 61 47 2 8 27 31 55 51 44 32 52 35 63 22 31 -38 184 -94
254 -94 61 0 174 59 244 129 64 63 121 166 121 217 0 27 7 30 29 10 43 -38
192 -58 248 -34 31 14 138 94 167 127 16 17 31 21 85 21 44 0 81 7 110 20 24
11 52 20 62 20 10 0 43 9 74 21 48 18 81 21 258 23 198 2 237 -2 287 -29 37
-19 100 -30 100 -16 0 40 -130 107 -339 175 -88 28 -128 36 -187 36 l-75 0 45
58 c61 78 76 117 76 205 0 53 -5 83 -20 112 l-20 39 27 28 c25 27 31 28 119
28 122 0 189 25 262 97 31 31 55 64 58 82 4 17 10 31 15 31 4 0 11 20 15 45 3
25 11 45 18 45 6 0 31 -10 56 -21z m-1995 -90 l32 -12 -42 -86 c-26 -53 -45
-106 -48 -140 -4 -29 -8 -55 -10 -57 -1 -2 -25 8 -52 21 -26 14 -59 25 -71 25
-34 0 -54 26 -54 70 0 30 10 51 46 99 54 72 56 74 114 82 25 3 47 7 49 8 3 0
19 -4 36 -10z m2520 -34 c50 -9 104 -21 121 -26 44 -14 114 -25 289 -48 83
-11 195 -32 250 -47 55 -14 116 -29 135 -34 129 -28 210 -70 210 -110 0 -10
-11 -55 -25 -101 -14 -46 -32 -106 -41 -134 -8 -27 -23 -81 -33 -120 -10 -38
-29 -92 -43 -120 -14 -27 -31 -67 -37 -88 -24 -72 -89 -155 -159 -202 -37 -25
-86 -59 -109 -77 -207 -163 -301 -228 -318 -222 -7 3 -30 -5 -52 -18 -21 -14
-83 -46 -138 -73 -55 -27 -108 -55 -118 -64 -18 -15 -100 -60 -194 -106 -53
-25 -184 -73 -278 -101 -27 -8 -59 -19 -70 -24 -33 -15 -95 -15 -192 0 -106
16 -117 29 -50 59 56 26 184 73 277 102 41 13 86 31 100 40 14 9 41 21 60 28
48 16 229 123 346 204 89 62 237 191 286 250 105 126 122 181 117 374 -4 117
-4 119 -50 213 -54 110 -103 179 -168 234 -110 93 -182 162 -206 197 -14 21
-19 36 -12 34 6 -2 53 -11 102 -20z m-2179 -30 c20 -10 54 -15 104 -14 41 1
83 -2 92 -6 23 -9 58 -88 58 -130 0 -50 -29 -102 -87 -156 -71 -67 -87 -74
-137 -59 -56 17 -106 43 -138 73 -25 23 -28 33 -28 88 0 102 24 166 77 200 33
22 25 22 59 4z m878 -287 c14 -52 6 -104 -22 -149 -16 -24 -35 -50 -44 -57
-13 -10 -16 -6 -21 36 -3 27 -17 75 -31 107 -15 32 -24 61 -21 64 4 3 30 8 58
12 29 3 57 7 63 8 7 0 14 -9 18 -21z m2506 -46 c36 -17 80 -33 98 -37 17 -3
32 -8 32 -9 0 -14 -32 -189 -39 -216 -5 -19 -15 -57 -22 -85 -23 -96 -60 -219
-67 -225 -4 -3 -20 -31 -37 -62 -34 -68 -82 -121 -137 -153 -9 -5 -45 -37 -80
-70 -223 -210 -388 -322 -576 -394 -53 -21 -144 -63 -201 -94 -57 -32 -143
-72 -190 -91 -92 -36 -299 -81 -421 -91 -41 -4 -84 -10 -95 -15 -11 -5 -63
-16 -115 -25 -52 -9 -115 -21 -140 -26 -55 -11 -378 -39 -440 -38 l-45 1 57
18 c31 9 76 32 100 49 36 26 59 33 128 41 108 13 259 29 378 40 51 4 99 13
106 19 7 6 51 24 97 40 138 48 165 59 274 111 121 57 313 170 430 254 44 32
107 76 139 99 32 23 85 62 116 87 83 65 147 111 201 145 110 69 185 205 265
480 14 50 37 123 50 164 13 40 24 83 24 95 0 29 8 37 29 26 9 -5 45 -22 81
-38z m-2886 -61 c74 -77 37 -233 -82 -342 -63 -58 -82 -66 -164 -78 -50 -7
-58 -5 -58 8 -1 27 -40 104 -67 134 l-27 27 25 0 c13 0 57 16 98 35 84 41 168
119 206 196 14 27 29 49 33 49 5 0 21 -13 36 -29z m-1150 -15 c49 -10 75 -20
88 -36 10 -12 18 -26 18 -30 0 -5 -20 -26 -45 -47 -25 -21 -45 -44 -45 -50 0
-9 -16 -13 -45 -13 -25 0 -45 5 -45 10 0 6 -7 10 -15 10 -8 0 -15 -4 -15 -10
0 -22 -26 -7 -48 27 -26 40 -32 95 -13 101 7 2 24 15 39 28 31 27 35 28 126
10z m-4901 -21 c37 -8 114 -35 170 -60 73 -34 127 -51 189 -60 103 -16 162
-46 253 -128 33 -30 110 -85 170 -123 258 -161 402 -288 473 -414 20 -36 47
-80 59 -99 13 -19 23 -41 23 -50 0 -47 187 -359 264 -441 31 -32 34 -42 41
-120 4 -47 8 -96 8 -110 0 -25 -64 -190 -73 -190 -3 0 -12 11 -20 24 -8 13
-55 68 -104 121 -70 76 -116 114 -215 179 -69 46 -140 90 -157 99 -17 9 -34
22 -37 30 -3 7 -33 24 -66 36 -34 12 -61 26 -61 32 0 5 -15 16 -32 23 -18 8
-55 24 -83 37 -27 12 -69 30 -91 40 -23 9 -45 22 -48 28 -4 6 -20 11 -35 11
-15 0 -31 4 -37 9 -5 5 -31 18 -59 29 -27 11 -75 31 -105 45 -30 14 -81 28
-112 32 -50 6 -58 5 -58 -9 0 -9 6 -16 14 -16 7 0 25 -9 39 -20 14 -11 31 -20
39 -20 7 0 36 -15 63 -34 28 -18 79 -48 115 -66 36 -19 85 -50 110 -70 25 -20
65 -49 90 -63 25 -15 64 -44 87 -66 23 -22 54 -43 68 -47 16 -4 35 -23 52 -53
45 -77 72 -111 183 -226 155 -160 204 -215 230 -260 13 -22 34 -53 47 -69 13
-15 31 -42 40 -59 l15 -30 -31 24 c-18 13 -46 36 -64 51 -39 32 -293 166 -718
379 -131 66 -342 136 -634 211 -126 32 -136 33 -310 31 -259 -3 -773 -55 -827
-84 -23 -13 -42 -18 -161 -42 -37 -8 -73 -19 -80 -24 -22 -17 -138 -63 -158
-63 -10 0 -19 -7 -19 -15 0 -22 50 -19 122 9 81 31 461 101 491 91 7 -2 91
-11 187 -20 200 -18 329 -40 380 -65 46 -23 149 -53 290 -86 276 -63 480 -132
640 -216 63 -34 216 -113 340 -175 190 -97 293 -159 345 -206 6 -6 -123 -8
-330 -5 -433 6 -679 -7 -870 -45 -96 -19 -156 -36 -170 -47 -6 -5 -36 -18 -67
-30 -31 -11 -87 -38 -125 -60 -37 -21 -105 -59 -149 -84 -86 -48 -173 -103
-214 -136 -14 -11 -63 -41 -110 -67 -46 -26 -91 -56 -99 -65 -9 -10 -21 -18
-27 -18 -6 0 -18 -10 -27 -23 -8 -12 -53 -42 -101 -67 -81 -42 -108 -70 -68
-70 9 0 53 21 97 45 88 50 108 59 255 119 36 15 83 35 105 46 22 10 67 29 100
41 33 12 80 30 105 40 115 47 283 99 435 135 158 37 231 45 410 50 105 3 228
9 275 14 105 12 510 13 510 2 0 -5 -35 -18 -77 -29 -114 -31 -196 -64 -215
-89 -17 -21 -102 -55 -223 -89 -33 -9 -87 -32 -120 -50 -77 -42 -152 -82 -410
-220 -285 -152 -320 -173 -473 -288 -130 -98 -337 -301 -442 -435 -97 -124
-220 -324 -220 -358 0 -6 -13 -9 -30 -6 -17 2 -83 -11 -152 -31 -169 -49 -240
-58 -483 -58 -245 0 -349 17 -468 75 -40 20 -87 36 -105 36 -17 0 -49 9 -69
20 -21 11 -42 20 -48 20 -6 0 -26 11 -45 23 -19 13 -69 41 -110 62 -41 21 -88
48 -105 60 -27 19 -62 35 -242 115 -29 13 -67 38 -84 56 -18 19 -38 34 -45 34
-26 0 -191 205 -205 255 -6 22 -20 67 -30 99 -24 76 -24 102 2 173 20 52 75
131 204 294 201 254 224 310 205 514 -6 60 -16 123 -22 138 -14 36 -3 46 23
21 52 -52 58 -352 13 -595 -18 -99 -18 -129 1 -129 8 0 15 6 15 13 0 13 38 88
49 97 12 10 41 69 41 84 0 9 5 16 10 16 6 0 10 11 10 24 0 13 6 29 14 35 7 6
21 51 31 99 9 48 21 96 27 106 6 11 13 76 15 145 5 124 5 127 -24 181 -17 32
-48 70 -74 90 -88 69 -194 192 -244 285 -27 50 -52 92 -55 95 -17 13 -86 183
-119 295 -22 72 -33 248 -17 274 5 7 15 40 22 74 8 34 31 106 50 160 31 82 40
97 58 97 22 0 66 33 66 50 0 4 34 42 75 84 41 41 85 96 99 123 58 114 355 276
635 347 140 35 587 92 816 103 98 5 124 3 225 -22 110 -26 123 -27 295 -22
140 5 203 11 285 30 58 14 130 28 162 31 31 4 76 18 100 30 52 28 133 32 231
11z m5427 -313 c25 -13 60 -38 78 -55 28 -27 32 -37 32 -84 0 -94 -68 -190
-166 -234 -66 -30 -100 -29 -160 7 -31 18 -31 18 -17 52 21 50 28 152 13 196
-10 32 -9 42 9 80 16 36 28 47 63 59 52 18 88 13 148 -21z m-595 -77 c75 -10
121 -38 129 -76 9 -48 7 -68 -10 -105 -28 -59 -97 -80 -167 -50 -91 37 -135
176 -81 249 18 23 19 23 49 6 16 -9 52 -20 80 -24z m-105 -474 c0 -12 -209
-223 -270 -273 -25 -20 -70 -60 -100 -88 -30 -28 -75 -63 -100 -78 -25 -14
-76 -47 -115 -73 -38 -25 -95 -59 -125 -74 -30 -15 -88 -51 -130 -80 -93 -65
-178 -112 -295 -163 -49 -22 -135 -61 -189 -87 -113 -53 -214 -81 -334 -91
-45 -3 -85 -11 -88 -15 -9 -15 -283 -10 -349 6 -34 7 -74 14 -90 13 -40 0
-125 20 -150 36 -11 7 -33 16 -50 19 -63 11 -121 40 -167 83 -26 24 -52 44
-58 44 -5 0 -10 15 -10 33 0 40 32 73 109 112 115 58 151 61 229 21 51 -26
218 -39 447 -33 179 5 227 9 325 32 63 14 166 37 228 50 62 14 140 32 175 41
66 17 245 81 262 94 6 4 28 13 50 20 22 6 71 28 109 47 37 19 86 41 108 49 22
7 51 22 66 33 15 10 72 42 127 70 55 29 111 63 125 76 14 12 39 30 55 38 36
18 157 114 168 133 9 16 37 19 37 5z m7630 -611 c30 -11 67 -20 81 -20 37 0
83 -54 69 -80 -12 -23 -32 -30 -83 -30 -33 -1 -46 -6 -60 -26 -10 -13 -17 -34
-15 -47 2 -18 12 -24 52 -31 31 -6 61 -5 85 3 42 13 253 27 361 24 144 -5 448
-77 542 -130 29 -17 78 -38 108 -47 30 -9 62 -21 71 -25 8 -5 44 -20 80 -34
62 -24 104 -31 275 -44 131 -9 379 38 479 91 22 12 82 32 132 45 74 19 100 22
131 14 51 -13 141 -86 183 -148 28 -42 33 -59 33 -105 0 -47 -7 -66 -48 -136
-71 -123 -238 -311 -308 -348 -20 -11 -42 -29 -48 -40 -9 -19 -20 -21 -90 -21
-66 0 -83 -4 -109 -22 -16 -13 -34 -23 -38 -23 -5 0 -33 -22 -63 -50 -30 -27
-63 -52 -72 -55 -9 -3 -27 -22 -38 -41 -12 -18 -26 -34 -31 -34 -5 0 -9 -7 -9
-15 0 -21 34 -19 55 5 10 11 41 28 69 39 28 11 65 26 81 34 17 8 62 17 101 21
65 5 74 4 111 -21 61 -39 79 -85 65 -166 -5 -35 -24 -98 -41 -140 -63 -159
-288 -450 -385 -499 -23 -11 -50 -28 -61 -38 -21 -18 -97 -58 -210 -110 -38
-18 -133 -63 -210 -100 -169 -83 -223 -106 -295 -130 -30 -10 -82 -30 -115
-45 -33 -15 -91 -38 -129 -51 -38 -13 -106 -44 -150 -68 -45 -24 -112 -56
-151 -71 -93 -37 -199 -105 -277 -178 -32 -30 -38 -41 -38 -76 0 -26 8 -52 20
-69 23 -31 46 -155 37 -194 -4 -15 -14 -33 -22 -41 -37 -38 -300 -97 -427 -97
-61 0 -169 30 -254 71 -46 22 -74 45 -112 92 -57 71 -156 167 -171 167 -6 0
-34 14 -63 31 -100 59 -158 73 -303 71 -72 0 -142 -5 -157 -11 -14 -5 -44 -27
-67 -49 -34 -32 -41 -45 -41 -77 0 -30 7 -44 37 -71 20 -19 41 -34 47 -34 6 0
-13 -15 -41 -32 -28 -18 -76 -51 -105 -73 -31 -24 -79 -49 -116 -60 -55 -16
-75 -17 -147 -8 -71 8 -95 17 -153 52 -95 57 -207 176 -266 282 -50 89 -104
153 -194 227 -61 51 -94 62 -180 62 -49 0 -71 -5 -94 -22 -30 -21 -30 -21 -26
-102 3 -57 11 -91 25 -116 13 -21 18 -42 14 -53 -6 -16 -16 -8 -66 48 -33 36
-89 84 -125 107 -75 47 -190 143 -211 175 -8 12 -30 45 -50 75 -55 81 -115
187 -145 253 -23 50 -29 79 -34 180 -10 176 -37 232 -152 315 -41 29 -66 40
-93 40 -30 0 -55 14 -138 75 -161 120 -218 168 -238 200 -22 35 -232 223 -313
280 -31 22 -83 60 -114 85 -31 25 -88 65 -127 89 -38 24 -89 59 -111 77 -41
33 -88 60 -233 135 -109 56 -283 119 -382 137 -30 6 -73 17 -95 25 -93 36
-184 50 -273 43 l-86 -6 -130 64 c-109 54 -190 90 -330 145 -16 7 -8 11 40 25
33 9 105 30 160 47 196 60 273 70 370 50 28 -6 73 -15 100 -21 55 -11 91 -19
180 -45 33 -9 98 -26 145 -36 83 -18 243 -89 321 -142 20 -14 58 -37 85 -53
27 -15 75 -49 106 -74 31 -25 73 -56 93 -70 86 -59 217 -175 314 -276 106
-112 119 -123 212 -185 32 -22 67 -57 87 -87 35 -55 97 -112 121 -112 8 0 44
-12 80 -26 81 -33 197 -49 228 -33 22 12 63 1 233 -60 30 -11 71 -21 90 -21
38 0 262 -37 435 -70 184 -36 809 -53 1312 -36 191 6 312 6 445 -4 159 -11
215 -10 428 5 293 20 380 29 440 44 67 17 125 31 220 52 47 10 112 25 145 34
33 8 87 21 120 28 61 15 97 29 193 73 29 13 57 24 62 24 5 0 26 7 47 16 21 9
47 20 58 25 11 4 36 14 55 22 19 9 73 27 120 42 47 15 119 43 160 63 206 96
329 159 370 188 25 17 64 41 87 53 53 26 113 78 113 97 0 25 -31 15 -73 -22
-22 -20 -60 -45 -86 -56 -25 -10 -109 -50 -186 -88 -180 -89 -219 -105 -291
-124 -32 -8 -99 -29 -149 -46 -111 -38 -192 -58 -312 -75 -50 -7 -95 -15 -101
-18 -5 -4 -91 -13 -191 -22 -101 -8 -187 -17 -191 -20 -26 -16 -528 -42 -740
-38 -52 1 -161 7 -242 13 -385 31 -886 7 -1371 -66 -54 -8 -102 -12 -108 -9
-22 14 -362 29 -679 30 -228 1 -344 5 -363 13 -15 7 -31 11 -35 10 -4 -1 -15
2 -24 6 -25 11 -22 51 7 114 26 56 31 82 16 82 -4 0 2 21 15 48 13 26 24 53
24 60 0 6 4 12 9 12 5 0 12 11 15 25 4 14 14 29 24 32 9 3 31 16 47 27 35 25
122 66 138 66 7 0 43 20 82 45 38 25 78 48 87 51 10 3 18 15 18 27 1 14 17 35
46 57 80 62 311 313 479 521 62 77 225 215 283 240 54 23 78 24 167 3 157 -37
171 -62 68 -127 -26 -17 -43 -35 -43 -46 0 -24 36 -37 55 -21 23 19 361 32
505 19 69 -6 195 -11 280 -11 151 0 158 1 255 35 228 79 274 96 293 111 31 23
320 89 422 96 58 3 112 7 120 8 8 1 40 -7 70 -18z m-6902 -111 c53 -5 143 -17
199 -25 56 -7 133 -14 171 -14 53 0 71 -4 76 -15 3 -9 19 -15 41 -15 20 0 49
-7 65 -15 19 -10 86 -18 202 -26 209 -13 306 -21 293 -24 -110 -31 -203 -61
-215 -71 -8 -6 -37 -21 -65 -33 -27 -12 -63 -36 -80 -54 l-30 -32 -155 42
c-85 24 -205 54 -267 68 -62 14 -197 52 -300 86 -103 33 -213 68 -243 78 -55
18 -55 18 -30 32 22 12 94 22 208 27 18 1 77 -3 130 -9z m-893 -228 c112 -6
215 -18 300 -36 113 -23 397 -107 565 -167 30 -11 111 -32 180 -48 144 -32
390 -99 500 -137 107 -37 330 -139 506 -233 83 -44 229 -112 324 -150 134 -55
188 -82 239 -122 67 -52 133 -120 162 -167 9 -14 77 -89 151 -166 168 -175
274 -297 298 -346 11 -20 36 -54 57 -75 51 -53 173 -238 220 -332 34 -69 38
-87 43 -177 4 -78 1 -118 -14 -180 -35 -146 -133 -306 -195 -320 -17 -3 -40
-14 -53 -24 -13 -10 -36 -21 -53 -25 -47 -11 -106 -57 -128 -100 l-20 -39 -55
109 c-30 60 -57 111 -61 114 -3 3 -24 34 -45 69 -22 35 -45 71 -53 80 -67 79
-213 242 -239 266 -17 17 -69 53 -114 80 -45 28 -105 69 -134 93 -29 23 -58
42 -64 42 -6 0 -17 6 -24 13 -63 58 -144 95 -263 118 -27 6 -65 15 -83 21 -19
5 -36 7 -40 3 -14 -13 17 -40 49 -43 41 -3 89 -21 89 -33 0 -5 4 -9 9 -9 15 0
190 -121 241 -165 85 -76 271 -270 305 -320 19 -27 48 -68 64 -90 67 -94 217
-399 251 -508 11 -38 25 -110 30 -160 5 -51 14 -107 20 -126 11 -39 -11 -223
-29 -245 -6 -7 -18 -41 -27 -75 -9 -36 -31 -84 -50 -111 -19 -26 -34 -51 -34
-56 0 -4 -9 -18 -21 -30 -12 -12 -35 -49 -53 -81 -61 -115 -98 -160 -148 -182
-71 -31 -135 -57 -213 -87 -38 -15 -92 -41 -120 -59 -97 -62 -211 -210 -241
-311 -25 -86 -36 -95 -194 -168 -68 -31 -177 -73 -210 -81 -121 -28 -306 -33
-455 -11 -55 8 -134 20 -175 26 -159 22 -210 32 -216 41 -3 5 -14 9 -24 9 -10
0 -31 7 -47 15 -15 9 -39 20 -53 25 -14 5 -47 23 -75 40 -27 16 -57 33 -65 36
-8 4 -23 14 -32 22 -16 13 -15 18 20 60 20 25 61 68 91 96 30 28 114 110 186
182 91 91 142 135 168 143 47 16 113 95 166 201 77 151 87 218 97 620 10 372
-26 538 -176 825 -32 61 -74 157 -93 215 -51 152 -130 313 -226 458 -25 37
-61 95 -80 128 -78 133 -125 181 -318 325 -56 41 -187 119 -201 119 -5 0 -12
8 -16 18 -3 9 -14 31 -25 47 -11 17 -20 41 -20 55 -1 14 -16 42 -33 61 -18 20
-71 79 -117 133 -98 112 -128 136 -219 179 -135 64 -232 126 -232 149 0 20
-28 40 -140 100 -101 55 -121 74 -155 153 -25 56 -26 60 -9 72 51 37 360 -8
584 -84 133 -45 424 -205 623 -340 246 -168 358 -251 451 -336 111 -101 243
-234 262 -263 17 -26 44 -33 44 -11 0 7 -13 31 -30 53 -16 21 -30 43 -30 48 0
12 -42 99 -50 106 -4 3 -20 32 -36 65 -17 33 -42 79 -57 102 -15 24 -27 45
-27 48 0 10 -69 112 -126 186 -69 90 -207 219 -273 255 -25 15 -59 36 -76 48
-125 87 -473 264 -604 307 -91 30 -98 34 -87 51 9 16 19 18 61 14 28 -3 127
-10 220 -15z m-1810 -541 c33 0 78 -5 100 -10 22 -5 95 -16 162 -25 72 -9 141
-24 170 -36 59 -26 198 -38 242 -20 24 11 42 8 117 -15 188 -57 621 -241 679
-289 l30 -24 -35 0 c-19 -1 -73 13 -120 29 -46 17 -94 30 -106 30 -12 0 -75
15 -140 33 l-119 32 -238 -1 c-168 0 -241 -4 -249 -12 -7 -7 -26 -12 -42 -13
-54 -1 -141 -33 -144 -53 -3 -16 0 -18 25 -11 15 4 84 9 153 11 106 3 140 0
225 -21 55 -13 126 -26 157 -29 80 -8 198 -38 314 -79 95 -33 223 -107 304
-175 19 -16 50 -37 69 -47 19 -9 39 -21 45 -26 6 -6 47 -33 91 -61 44 -28 101
-70 126 -92 25 -23 66 -53 90 -69 150 -94 239 -173 284 -252 15 -28 51 -86 80
-130 113 -174 166 -282 235 -475 26 -74 66 -167 89 -207 124 -219 168 -411
157 -693 -12 -317 -14 -339 -50 -384 -17 -23 -34 -43 -37 -46 -17 -14 -59 -92
-70 -131 -16 -56 -26 -70 -102 -149 -35 -36 -86 -90 -114 -121 -28 -32 -80
-83 -114 -115 -35 -32 -73 -76 -84 -97 -35 -65 -76 -109 -119 -128 -50 -22
-227 -202 -256 -260 -11 -22 -28 -56 -39 -76 -10 -21 -24 -63 -31 -93 -23
-106 -53 -215 -66 -241 -16 -32 -60 -66 -139 -107 -55 -28 -95 -41 -225 -71
-57 -13 -206 -16 -336 -6 -145 11 -210 -3 -363 -78 -124 -61 -128 -62 -206
-61 -70 0 -96 6 -205 47 -69 26 -154 61 -190 79 -36 17 -76 35 -90 40 -14 6
-38 17 -55 25 -16 9 -81 42 -144 74 -62 31 -125 68 -140 80 -36 32 -110 66
-157 74 -104 17 -249 50 -337 77 -84 26 -105 37 -153 81 -95 86 -171 209 -245
393 -78 197 -79 269 -3 430 15 33 30 61 33 64 15 12 77 159 111 260 31 93 101
231 121 238 5 2 9 9 9 16 0 7 15 30 34 52 37 43 66 97 86 162 11 35 11 49 0
82 -7 22 -19 40 -26 40 -16 0 -27 -34 -20 -58 7 -21 -49 -131 -70 -139 -27
-10 -254 -317 -254 -343 0 -5 -4 -10 -9 -10 -5 0 -13 -10 -17 -22 -4 -13 -37
-54 -74 -93 -92 -96 -140 -173 -180 -287 -12 -33 -16 -35 -37 -27 -60 23 -349
-3 -525 -46 -55 -14 -126 -25 -156 -25 -62 0 -170 29 -252 67 -30 14 -86 38
-123 54 -37 16 -81 39 -98 51 -63 49 -169 143 -169 150 0 4 -8 16 -19 27 -10
10 -41 64 -69 120 -68 136 -130 231 -172 266 -35 28 -111 146 -125 194 -8 25
-40 80 -89 150 -25 36 -27 45 -17 67 21 46 14 83 -24 121 -64 64 -78 111 -77
253 0 79 7 151 17 195 50 210 399 616 695 807 84 54 231 137 383 217 77 40
200 106 274 147 74 41 140 74 145 74 17 0 199 61 285 96 45 18 112 51 149 73
37 22 83 44 103 47 20 4 41 10 46 14 15 10 93 28 150 34 45 4 72 11 185 47 49
16 190 96 222 127 l27 25 -11 -34 c-26 -81 -71 -189 -77 -189 -9 0 -41 -72
-41 -93 0 -33 -54 -114 -124 -185 -96 -100 -356 -302 -451 -353 -22 -12 -62
-38 -89 -58 -27 -20 -64 -45 -82 -56 -122 -75 -233 -155 -278 -201 -17 -17
-58 -48 -91 -68 -88 -54 -96 -59 -122 -80 -21 -18 -32 -46 -17 -46 14 0 190
63 198 71 6 5 20 9 32 9 12 0 27 6 33 13 6 8 30 20 53 27 89 27 311 134 373
180 27 21 68 47 90 59 49 26 137 89 276 198 103 80 308 284 404 401 53 66 134
205 166 287 11 28 26 61 33 74 l14 25 20 -42 c11 -23 35 -90 52 -149 18 -60
37 -113 42 -120 17 -21 40 -116 49 -203 5 -47 11 -112 15 -145 4 -33 11 -65
16 -72 23 -29 0 -400 -28 -456 -28 -52 -74 -189 -74 -216 0 -14 -6 -43 -14
-66 -8 -22 -20 -60 -27 -85 -7 -25 -23 -67 -36 -94 -13 -28 -23 -58 -23 -67 0
-10 -5 -21 -11 -25 -6 -3 -36 -58 -66 -120 -29 -62 -58 -116 -64 -119 -5 -4
-15 -21 -23 -39 -8 -20 -25 -38 -45 -45 -17 -8 -31 -20 -31 -27 0 -18 34 -18
70 1 42 22 144 148 186 229 20 39 42 75 50 79 8 4 14 17 14 28 0 19 74 142
111 184 10 11 39 61 65 110 26 50 50 92 54 95 12 8 57 102 70 145 17 58 32
231 33 375 2 210 -33 536 -64 605 -5 11 -15 49 -23 85 -8 36 -19 82 -24 104
-7 25 -7 69 -1 125 5 47 9 96 9 109 0 19 5 22 39 22 23 0 48 8 62 19 18 14 30
16 58 10 20 -5 63 -9 96 -9z m-6502 -1074 c87 -17 181 -45 249 -75 26 -11 74
-26 107 -32 l59 -13 53 -88 c30 -49 59 -98 65 -108 20 -36 188 -207 230 -234
23 -15 66 -36 95 -47 30 -12 79 -37 109 -58 30 -20 80 -49 110 -65 30 -16 62
-35 71 -43 39 -33 221 -132 246 -133 4 -1 22 -12 38 -25 l30 -25 -45 14 c-25
7 -110 39 -190 71 -80 31 -172 65 -206 75 -34 10 -70 22 -80 28 -10 5 -44 12
-75 15 -54 5 -135 41 -224 98 -16 10 -37 22 -45 26 -8 3 -26 15 -39 25 -25 19
-61 24 -61 9 0 -8 21 -30 130 -136 30 -28 83 -64 181 -121 10 -6 27 -18 36
-26 10 -8 54 -32 98 -53 133 -62 348 -165 375 -179 50 -27 267 -105 348 -126
46 -11 107 -29 135 -39 70 -26 128 -38 282 -61 205 -30 272 -38 395 -50 63 -5
147 -16 185 -24 39 -8 86 -17 105 -20 31 -5 39 -14 70 -72 42 -81 252 -313
305 -338 23 -11 42 -30 53 -54 9 -20 22 -44 28 -52 14 -18 84 -185 84 -201 0
-6 25 -62 55 -125 52 -108 62 -122 168 -229 l113 -113 -75 -44 c-145 -82 -391
-194 -486 -220 -130 -36 -172 -41 -252 -33 -136 15 -596 6 -668 -13 -22 -6
-60 -16 -83 -22 -50 -12 -276 -6 -313 9 -13 5 -76 26 -139 46 -142 46 -166 58
-184 93 -26 52 -37 175 -17 195 6 6 11 19 11 29 0 21 -33 82 -66 121 -13 16
-24 33 -24 39 0 34 -183 233 -271 296 -13 9 -85 79 -159 154 l-135 137 -170
83 c-94 46 -202 97 -240 115 -39 17 -92 51 -119 75 l-49 43 40 36 c22 20 44
38 49 40 5 2 22 21 38 43 27 36 28 43 23 105 -9 110 -77 261 -204 451 -34 53
-63 104 -63 113 0 9 -8 25 -18 35 -10 10 -29 36 -42 57 -13 22 -39 58 -57 80
-48 57 -53 63 -53 71 0 15 -84 84 -113 93 -18 5 -67 20 -109 32 -82 25 -88 31
-88 96 0 21 11 44 33 70 56 65 128 132 149 139 12 3 44 17 72 30 61 28 47 27
139 10z m2697 -1053 c0 -43 3 -94 6 -114 l6 -36 -49 7 c-27 5 -92 11 -144 15
-179 12 -512 68 -659 110 l-115 34 75 -6 c41 -3 82 -9 90 -13 8 -4 38 -4 65 1
28 4 118 8 200 9 175 1 355 21 440 49 88 29 85 31 85 -56z m-963 21 c-3 -3
-12 -4 -19 -1 -8 3 -5 6 6 6 11 1 17 -2 13 -5z m9927 -824 c118 -50 447 -240
600 -345 61 -42 116 -95 116 -111 0 -7 -25 -31 -56 -53 -42 -30 -63 -39 -80
-35 -15 4 -24 2 -24 -5 0 -6 -11 -11 -25 -11 -38 0 -30 -24 13 -41 74 -28 187
-92 207 -116 24 -31 91 -74 210 -137 50 -26 127 -74 173 -106 57 -41 93 -60
113 -60 18 0 39 -9 54 -24 14 -14 42 -37 62 -53 47 -35 43 -31 144 -126 149
-140 158 -150 189 -212 51 -102 65 -239 22 -219 -9 5 -50 10 -90 12 l-74 4
-39 -42 -39 -41 0 -99 c0 -60 4 -100 11 -102 6 -2 10 -44 10 -113 0 -61 6
-146 14 -190 10 -52 12 -90 6 -110 -12 -45 2 -365 18 -394 8 -14 17 -70 21
-125 10 -120 36 -181 99 -228 45 -33 47 -36 27 -63 -22 -31 -90 -46 -139 -30
-23 7 -62 18 -87 25 -25 7 -81 24 -125 37 -44 14 -96 29 -115 35 -47 13 -240
84 -315 115 -66 28 -160 51 -245 60 l-55 6 -27 56 c-30 61 -79 118 -116 132
-65 25 -152 -6 -152 -53 0 -35 22 -96 43 -118 10 -12 16 -24 12 -28 -25 -26
-220 22 -361 89 -33 16 -66 29 -72 29 -5 0 -57 25 -114 55 -115 62 -139 74
-218 105 -30 12 -107 48 -170 80 -83 41 -132 59 -175 64 -33 4 -82 15 -108 23
-37 12 -77 15 -171 11 -108 -4 -124 -3 -134 12 -16 26 -176 130 -200 130 -43
0 -72 -18 -72 -45 0 -16 7 -28 18 -31 50 -17 125 -61 167 -99 l48 -43 -54 -7
c-30 -4 -92 -20 -138 -36 -98 -34 -104 -34 -196 -11 -62 16 -81 26 -149 86
-46 40 -105 80 -144 98 -101 45 -302 119 -342 126 -19 3 -48 15 -63 28 -15 13
-44 26 -65 30 -20 4 -53 18 -73 31 -20 13 -85 39 -145 57 -162 50 -162 50
-247 139 -104 109 -132 153 -167 266 -17 53 -39 116 -50 141 -10 25 -22 70
-25 100 -4 42 -13 65 -35 90 -17 19 -30 41 -30 48 0 6 -6 12 -12 12 -7 0 5 15
27 32 22 18 76 68 120 111 l80 79 15 -23 c8 -13 22 -29 30 -37 8 -7 53 -49
100 -93 111 -104 109 -102 203 -167 114 -78 168 -100 288 -117 296 -41 553
-37 674 11 11 4 -5 -14 -35 -39 -128 -110 -193 -229 -175 -324 14 -77 99 -120
179 -92 66 24 80 53 82 172 2 205 69 322 229 401 55 28 98 59 141 102 l61 63
44 -46 c50 -52 125 -103 150 -103 10 0 22 -6 26 -13 4 -7 35 -30 68 -52 33
-21 107 -70 165 -108 150 -100 293 -187 380 -232 41 -21 98 -51 126 -66 29
-15 74 -34 100 -43 27 -8 63 -19 79 -25 93 -31 154 -50 184 -56 18 -4 56 -17
85 -30 28 -12 75 -28 104 -35 28 -6 55 -16 58 -21 3 -5 14 -9 25 -9 21 0 125
-33 176 -56 17 -8 36 -14 41 -14 30 0 156 -77 204 -125 59 -58 78 -67 78 -36
0 30 -107 120 -205 172 -155 82 -294 149 -310 149 -8 0 -15 4 -15 8 0 5 -24
18 -52 31 -53 22 -124 65 -143 86 -27 29 -198 130 -379 225 -101 52 -349 201
-366 220 -11 12 -128 88 -160 105 -19 10 -37 21 -40 24 -3 3 -24 19 -48 35
-24 16 -57 47 -74 68 -16 21 -63 63 -103 93 -101 76 -101 75 -63 114 37 38
115 79 243 128 106 41 190 94 210 133 8 15 31 49 52 76 21 27 51 74 68 104 16
31 44 77 60 103 17 26 44 70 61 97 17 28 37 72 44 98 7 26 20 74 30 107 10 33
21 85 25 115 3 30 8 67 11 82 l6 28 36 -19 c20 -10 82 -38 136 -61z"/>
<path d="M10745 22237 c-22 -12 -45 -33 -51 -46 -6 -12 -17 -28 -23 -34 -6 -6
-11 -29 -11 -51 0 -47 -55 -152 -100 -189 -16 -14 -30 -30 -30 -34 0 -5 -18
-20 -41 -33 -22 -14 -59 -39 -82 -56 -23 -17 -52 -36 -64 -43 -13 -6 -23 -19
-23 -28 0 -23 78 -10 165 27 39 16 77 30 86 30 8 0 26 11 39 25 13 14 31 25
40 25 9 0 29 14 45 30 16 17 33 30 38 30 5 0 31 18 58 41 58 49 129 162 136
218 5 36 2 44 -30 76 -43 43 -91 47 -152 12z"/>
<path d="M11430 21908 c-17 -13 -39 -36 -49 -53 -9 -16 -20 -33 -25 -36 -4 -4
-5 -38 -1 -77 6 -63 4 -76 -20 -130 -15 -34 -24 -65 -21 -71 8 -13 -20 -71
-34 -71 -6 0 -10 -9 -10 -19 0 -19 -52 -71 -71 -71 -5 0 -9 -8 -9 -19 0 -10
-11 -26 -24 -35 -14 -8 -26 -26 -28 -38 -2 -16 -17 -30 -50 -45 -57 -27 -68
-59 -16 -49 50 10 178 77 236 123 106 85 219 222 263 319 28 63 30 77 27 152
-3 80 -4 85 -36 113 -40 36 -86 38 -132 7z"/>
<path d="M18012 21341 c-23 -14 -55 -160 -47 -216 3 -27 10 -81 15 -120 5 -38
18 -88 29 -110 12 -21 21 -45 21 -52 0 -7 7 -13 16 -13 14 0 15 7 8 43 -4 23
-8 74 -8 112 0 63 4 76 36 130 20 33 48 71 62 84 20 19 26 34 26 67 0 36 -5
46 -29 63 -30 22 -104 29 -129 12z"/>
<path d="M16444 20860 c-33 -13 -56 -58 -61 -119 -5 -48 -1 -66 25 -122 16
-37 35 -69 41 -73 6 -4 11 -17 11 -30 0 -26 18 -45 75 -75 22 -12 76 -42 120
-66 54 -30 92 -44 118 -45 51 0 49 24 -5 45 -36 14 -48 26 -72 73 -33 65 -56
181 -56 291 0 67 -3 78 -27 103 -24 25 -34 28 -87 27 -34 0 -70 -4 -82 -9z"/>
<path d="M17735 20019 c-20 -63 70 -259 169 -367 38 -41 68 -57 123 -67 24 -4
45 -11 49 -16 8 -13 59 -11 139 6 104 21 132 68 79 130 -24 28 -31 30 -117 36
-68 5 -104 12 -137 30 -25 13 -46 27 -48 31 -2 4 -10 8 -18 8 -16 0 -124 107
-124 124 0 6 -10 16 -22 21 -13 6 -32 27 -43 47 -22 42 -40 48 -50 17z"/>
<path d="M4487 18835 c-23 -84 -45 -258 -40 -310 5 -52 35 -213 69 -370 23
-103 77 -270 114 -350 18 -38 38 -90 45 -115 21 -73 75 -213 92 -240 9 -14 38
-87 64 -163 60 -176 147 -326 354 -607 46 -63 96 -137 111 -165 62 -117 118
-234 144 -305 15 -41 44 -112 63 -156 52 -120 92 -261 128 -449 21 -113 52
-221 79 -280 10 -22 37 -84 59 -138 21 -53 56 -125 76 -160 20 -34 44 -75 53
-92 9 -16 36 -46 58 -67 46 -42 101 -140 132 -233 11 -33 36 -91 55 -130 19
-38 38 -81 42 -95 10 -32 90 -138 167 -223 35 -38 65 -74 67 -80 2 -7 13 -21
25 -32 12 -11 33 -39 49 -63 15 -23 34 -42 42 -42 22 0 19 14 -18 72 -18 29
-43 76 -55 103 -13 28 -27 57 -33 65 -5 8 -13 25 -19 38 -5 12 -14 22 -20 22
-5 0 -10 6 -10 13 0 7 -20 44 -45 81 -25 38 -45 72 -45 76 0 7 -137 278 -149
295 -4 6 -18 46 -30 90 -13 44 -38 113 -57 153 -19 40 -34 76 -34 81 0 4 -7
22 -16 40 -8 17 -20 59 -25 94 -5 34 -29 143 -55 242 -25 99 -54 218 -64 265
-46 214 -87 352 -138 465 -22 50 -48 113 -57 140 -30 92 -175 370 -229 440
-61 79 -276 391 -276 401 0 3 -15 27 -34 53 -34 47 -66 112 -93 191 -8 25 -51
115 -94 201 -44 86 -79 161 -79 167 0 6 -3 12 -7 14 -9 3 -53 90 -53 102 0 4
-15 34 -34 65 -38 65 -117 285 -124 344 -2 21 -10 51 -18 65 -8 15 -14 34 -14
43 0 9 -6 22 -14 28 -8 7 -18 27 -21 44 -4 18 -13 39 -20 47 -11 13 -33 107
-49 211 -4 20 0 57 9 85 18 60 19 94 2 94 -7 0 -20 -28 -30 -65z"/>
<path d="M3483 17583 c-12 -2 -34 -18 -48 -34 -31 -38 -33 -95 -6 -148 11 -20
22 -47 25 -61 8 -34 79 -115 130 -148 163 -105 352 -147 656 -147 82 0 100 3
133 23 60 38 50 52 -37 52 -66 0 -81 4 -136 35 -34 19 -64 35 -67 35 -2 0 -48
29 -101 64 -96 65 -252 203 -252 225 0 20 -63 82 -99 97 -31 13 -145 17 -198
7z"/>
<path d="M5655 17346 c-69 -32 -89 -70 -83 -159 5 -85 32 -119 90 -115 28 1
42 -3 53 -18 24 -32 55 -122 55 -162 0 -21 5 -43 11 -49 18 -18 14 -85 -7
-123 -10 -19 -19 -54 -20 -78 -1 -38 1 -43 18 -40 15 2 28 24 51 86 17 45 37
82 44 82 17 0 40 48 74 153 27 82 38 177 21 177 -4 0 -6 20 -4 45 6 69 -6 112
-40 151 -65 73 -170 94 -263 50z"/>
<path d="M4083 15629 c-48 -24 -73 -67 -73 -129 0 -52 21 -96 72 -155 47 -54
103 -85 152 -85 20 0 60 -11 89 -24 104 -46 218 -58 447 -47 191 8 301 23 393
52 20 7 37 16 37 21 0 4 7 8 15 8 20 0 19 26 -2 34 -9 4 -100 11 -202 17 -192
11 -219 16 -334 68 -38 17 -76 31 -84 31 -30 0 -179 96 -236 153 -32 32 -70
62 -84 68 -44 17 -145 11 -190 -12z"/>
<path d="M19913 14080 c-44 -10 -59 -24 -88 -82 -24 -48 -25 -53 -15 -141 15
-132 60 -256 131 -360 22 -32 44 -68 49 -80 6 -12 14 -29 20 -37 5 -8 14 -27
20 -42 10 -30 37 -37 47 -13 3 9 -2 55 -10 103 -9 48 -21 114 -26 147 -6 33
-17 92 -26 130 -18 79 -13 149 16 234 28 80 25 113 -10 134 -31 18 -56 20
-108 7z"/>
<path d="M21128 13725 c-6 -14 -17 -25 -25 -25 -7 0 -13 -6 -13 -13 0 -7 -13
-24 -28 -37 -16 -14 -34 -36 -41 -49 -18 -33 -39 -58 -106 -125 -33 -34 -94
-99 -135 -146 -104 -117 -456 -466 -567 -562 -51 -44 -96 -85 -100 -92 -21
-36 -281 -249 -387 -319 -27 -18 -66 -43 -86 -57 -21 -14 -78 -51 -126 -84
-49 -32 -107 -71 -130 -87 -44 -30 -453 -239 -468 -239 -5 0 -17 -6 -25 -13
-21 -18 -224 -97 -248 -97 -10 0 -34 -8 -53 -19 -19 -10 -52 -24 -73 -30 -20
-7 -43 -18 -50 -24 -23 -22 -92 -52 -132 -57 -34 -4 -40 -9 -43 -31 -3 -22 2
-27 29 -33 52 -10 80 -7 184 19 130 33 224 52 305 60 36 4 112 23 170 42 114
37 410 179 506 241 57 38 198 131 274 182 20 14 59 39 86 57 114 74 287 218
434 359 36 34 103 97 150 139 111 99 338 341 404 430 29 39 67 97 86 130 18
33 44 73 56 88 21 25 52 85 99 192 10 22 35 77 57 123 21 45 38 87 38 92 0 20
-31 9 -42 -15z"/>
<path d="M21759 13191 c-34 -8 -76 -43 -90 -75 -7 -14 -17 -26 -23 -26 -6 0
-35 -23 -65 -50 -29 -28 -58 -50 -64 -50 -5 0 -44 -16 -85 -36 -80 -39 -121
-41 -181 -9 -15 7 -45 15 -66 17 -55 4 -58 -22 -10 -68 86 -80 271 -122 402
-89 113 28 295 148 349 230 21 33 9 111 -22 142 -18 18 -33 23 -71 22 -26 -1
-59 -4 -74 -8z"/>
<path d="M18507 12918 c-45 -27 -51 -46 -44 -147 4 -63 11 -88 42 -146 21 -39
44 -77 51 -86 8 -8 14 -19 14 -23 0 -46 142 -236 177 -236 18 0 17 66 -1 73
-8 3 -22 23 -31 44 -9 21 -29 65 -45 99 -34 73 -44 150 -30 224 6 30 14 81 17
113 5 51 3 61 -18 83 -29 31 -80 32 -132 2z"/>
<path d="M19970 11755 c0 -8 8 -15 18 -15 23 -1 78 -76 91 -127 7 -24 16 -43
22 -43 6 0 27 -18 46 -40 68 -75 124 -91 378 -105 l110 -6 65 35 c135 70 173
213 69 256 -38 16 -182 9 -205 -11 -13 -11 -56 -14 -193 -14 -173 0 -177 1
-233 28 -32 16 -58 35 -58 43 0 10 -14 14 -55 14 -42 0 -55 -3 -55 -15z"/>
<path d="M17395 7276 c-39 -17 -85 -70 -115 -130 -21 -45 -22 -57 -18 -188 3
-81 10 -143 16 -147 5 -3 13 -23 17 -44 4 -20 13 -41 20 -45 6 -4 20 -27 29
-52 22 -56 59 -100 86 -100 28 0 26 36 -6 101 -39 77 -36 160 9 234 7 11 23
39 36 63 14 23 32 42 41 42 24 0 68 36 85 70 8 16 15 52 15 81 0 46 -4 55 -39
90 -35 36 -43 39 -92 39 -30 -1 -68 -7 -84 -14z"/>
<path d="M15475 7091 c-22 -10 -49 -29 -61 -42 -29 -34 -87 -136 -108 -191
-10 -27 -22 -48 -26 -48 -16 0 -40 -101 -40 -164 0 -33 8 -93 18 -133 14 -61
20 -73 38 -73 19 0 20 6 20 83 0 70 4 88 26 122 13 22 32 56 42 75 33 71 119
140 171 140 60 0 120 98 104 169 -17 76 -95 102 -184 62z"/>
<path d="M18730 6144 c0 -32 54 -106 109 -150 31 -25 66 -54 77 -64 12 -11 25
-20 29 -20 4 0 20 -11 37 -25 23 -20 41 -25 81 -25 69 0 98 16 125 70 30 61
29 110 -5 150 l-26 32 -156 -7 -156 -7 -45 31 c-50 34 -70 39 -70 15z"/>
<path d="M15330 5574 c-31 -108 50 -379 141 -474 18 -19 40 -48 49 -65 23 -46
73 -67 152 -63 81 4 116 26 137 84 20 56 8 110 -32 146 -18 16 -41 37 -52 47
-11 10 -63 38 -115 63 -52 25 -104 55 -114 66 -11 12 -24 22 -30 22 -26 1 -86
139 -86 199 0 14 -6 21 -19 21 -13 0 -22 -12 -31 -46z"/>
<path d="M17004 5428 c21 -279 21 -274 52 -315 28 -37 50 -74 83 -139 9 -18
36 -48 59 -68 39 -32 50 -36 99 -36 51 0 58 3 95 40 22 22 44 40 48 40 13 0 9
91 -6 118 -8 15 -14 32 -14 38 0 15 -38 31 -111 45 -35 6 -71 17 -79 24 -8 7
-21 14 -29 17 -28 8 -117 183 -130 255 -8 43 -32 72 -60 73 -12 0 -13 -16 -7
-92z"/>
<path d="M3030 4385 c-8 -21 -28 -44 -49 -56 -31 -19 -39 -19 -73 -8 -30 10
-46 10 -80 0 -64 -19 -78 -36 -78 -92 0 -70 29 -101 101 -106 36 -3 62 1 79
11 14 8 39 21 56 29 62 29 125 245 74 255 -10 2 -21 -10 -30 -33z"/>
<path d="M3835 3889 c17 -54 17 -117 -1 -156 -35 -74 -117 -173 -162 -194 -23
-12 -49 -30 -57 -42 -20 -28 -18 -83 3 -127 26 -55 68 -70 190 -70 101 0 104
1 133 29 16 16 29 36 29 44 0 8 7 17 15 20 22 9 45 74 45 128 0 84 -48 289
-76 322 -13 16 -24 32 -24 37 0 4 -12 10 -27 13 -16 3 -39 9 -52 13 -22 7 -23
5 -16 -17z"/>
<path d="M13703 3051 c-22 -10 -67 -24 -100 -31 -110 -21 -271 -94 -310 -141
-13 -15 -45 -36 -73 -48 -50 -22 -58 -33 -40 -61 8 -13 18 -10 67 17 91 50
274 70 337 38 26 -14 107 -32 186 -42 71 -8 139 51 147 128 11 115 -104 191
-214 140z"/>
<path d="M12830 1955 c0 -106 28 -217 98 -385 44 -108 68 -131 139 -137 94 -8
159 55 150 146 -7 61 -32 90 -121 137 -105 56 -178 131 -200 206 -9 31 -16 68
-16 82 0 21 -5 26 -25 26 -24 0 -25 -2 -25 -75z"/>
</g>
</svg>
